<?xml version="1.0" encoding="UTF-8"?>
<!DOCTYPE svg PUBLIC "-//W3C//DTD SVG 1.1//EN" "http://www.w3.org/Graphics/SVG/1.1/DTD/svg11.dtd">
<svg xmlns="http://www.w3.org/2000/svg" version="1.1" width="288px" height="322px" style="shape-rendering:geometricPrecision; text-rendering:geometricPrecision; image-rendering:optimizeQuality; fill-rule:evenodd; clip-rule:evenodd" xmlns:xlink="http://www.w3.org/1999/xlink">
<g><path style="opacity:1" fill="#fefefe" d="M -0.5,-0.5 C 95.5,-0.5 191.5,-0.5 287.5,-0.5C 287.5,106.833 287.5,214.167 287.5,321.5C 191.5,321.5 95.5,321.5 -0.5,321.5C -0.5,214.167 -0.5,106.833 -0.5,-0.5 Z"/></g>
<g><path style="opacity:1" fill="#d3d3c6" d="M 79.5,23.5 C 126.665,22.3351 173.998,22.1684 221.5,23C 222.416,23.2784 223.082,23.7784 223.5,24.5C 175.517,23.5291 127.517,23.1958 79.5,23.5 Z"/></g>
<g><path style="opacity:1" fill="#a9a774" d="M 79.5,23.5 C 127.517,23.1958 175.517,23.5291 223.5,24.5C 227.392,25.7383 231.392,26.905 235.5,28C 236.056,28.3826 236.389,28.8826 236.5,29.5C 227.844,28.5007 219.178,27.5007 210.5,26.5C 209.209,26.7373 208.209,26.404 207.5,25.5C 199.662,24.4797 191.662,24.4797 183.5,25.5C 154.336,24.3362 125.003,24.1695 95.5,25C 92.8333,25.6667 90.1667,26.3333 87.5,27C 86.0577,27.3768 85.0577,28.2101 84.5,29.5C 84.1667,29.5 83.8333,29.5 83.5,29.5C 81.8632,30.2178 80.1966,30.3845 78.5,30C 80.1667,29 81.5,27.6667 82.5,26C 81.9056,25.5357 81.2389,25.369 80.5,25.5C 78.0504,25.298 75.717,25.6314 73.5,26.5C 69.7524,27.2074 66.0857,28.2074 62.5,29.5C 62.8333,28.8333 63.1667,28.1667 63.5,27.5C 66.3973,26.871 69.064,25.871 71.5,24.5C 74.0961,23.7347 76.7628,23.4013 79.5,23.5 Z"/></g>
<g><path style="opacity:1" fill="#9b9649" d="M 183.5,25.5 C 164.83,25.3334 146.164,25.5001 127.5,26C 125.302,26.3729 123.135,26.8729 121,27.5C 117.986,26.3073 114.819,25.6407 111.5,25.5C 102.209,25.5907 93.2091,26.9241 84.5,29.5C 85.0577,28.2101 86.0577,27.3768 87.5,27C 90.1667,26.3333 92.8333,25.6667 95.5,25C 125.003,24.1695 154.336,24.3362 183.5,25.5 Z"/></g>
<g><path style="opacity:1" fill="#d0cfb8" d="M 71.5,24.5 C 69.064,25.871 66.3973,26.871 63.5,27.5C 65.6174,25.3455 68.284,24.3455 71.5,24.5 Z"/></g>
<g><path style="opacity:1" fill="#a29931" d="M 183.5,25.5 C 186.569,25.9854 189.236,27.3187 191.5,29.5C 159.53,28.3553 127.53,28.1886 95.5,29C 91.0316,29.2652 86.6983,30.0985 82.5,31.5C 82.8333,30.8333 83.1667,30.1667 83.5,29.5C 83.8333,29.5 84.1667,29.5 84.5,29.5C 93.2091,26.9241 102.209,25.5907 111.5,25.5C 114.819,25.6407 117.986,26.3073 121,27.5C 123.135,26.8729 125.302,26.3729 127.5,26C 146.164,25.5001 164.83,25.3334 183.5,25.5 Z"/></g>
<g><path style="opacity:1" fill="#a4a054" d="M 207.5,25.5 C 203.833,25.5 200.167,25.5 196.5,25.5C 196.33,26.8221 196.663,27.9887 197.5,29C 195.527,29.4955 193.527,29.6621 191.5,29.5C 189.236,27.3187 186.569,25.9854 183.5,25.5C 191.662,24.4797 199.662,24.4797 207.5,25.5 Z"/></g>
<g><path style="opacity:1" fill="#a8a33f" d="M 207.5,25.5 C 208.209,26.404 209.209,26.7373 210.5,26.5C 211.058,27.7899 212.058,28.6232 213.5,29C 221.358,28.1379 228.025,30.3046 233.5,35.5C 233.5,35.8333 233.5,36.1667 233.5,36.5C 229.341,34.8759 225.007,33.7093 220.5,33C 218.331,30.7969 215.665,29.9635 212.5,30.5C 212.082,29.7784 211.416,29.2784 210.5,29C 207.833,28.3333 205.167,28.3333 202.5,29C 202.835,30.7772 202.001,32.2772 200,33.5C 197.061,32.2367 194.227,30.9034 191.5,29.5C 193.527,29.6621 195.527,29.4955 197.5,29C 196.663,27.9887 196.33,26.8221 196.5,25.5C 200.167,25.5 203.833,25.5 207.5,25.5 Z"/></g>
<g><path style="opacity:1" fill="#c4c29d" d="M 63.5,27.5 C 63.1667,28.1667 62.8333,28.8333 62.5,29.5C 60.4418,30.9331 58.1085,31.5997 55.5,31.5C 57.5792,29.127 60.2459,27.7936 63.5,27.5 Z"/></g>
<g><path style="opacity:1" fill="#ada42a" d="M 191.5,29.5 C 194.227,30.9034 197.061,32.2367 200,33.5C 202.001,32.2772 202.835,30.7772 202.5,29C 205.167,28.3333 207.833,28.3333 210.5,29C 211.416,29.2784 212.082,29.7784 212.5,30.5C 215.567,30.7893 217.567,32.456 218.5,35.5C 212.395,32.4715 206.728,33.1382 201.5,37.5C 197.9,37.5386 195.566,35.872 194.5,32.5C 193.325,33.8549 192.325,33.6883 191.5,32C 170.127,31.9215 148.46,31.9215 126.5,32C 123.442,33.0146 120.442,34.1813 117.5,35.5C 106.389,30.9208 95.0561,30.0874 83.5,33C 84.5171,34.0495 84.6838,35.2161 84,36.5C 82.6703,35.4178 81.1703,34.7512 79.5,34.5C 79.5,34.1667 79.5,33.8333 79.5,33.5C 79.8212,31.9519 80.8212,31.2852 82.5,31.5C 86.6983,30.0985 91.0316,29.2652 95.5,29C 127.53,28.1886 159.53,28.3553 191.5,29.5 Z"/></g>
<g><path style="opacity:1" fill="#b3aa40" d="M 80.5,25.5 C 77.3719,27.4666 74.7052,30.1333 72.5,33.5C 71.5713,34.6888 71.238,36.0222 71.5,37.5C 74.385,36.6178 77.0517,35.2845 79.5,33.5C 79.5,33.8333 79.5,34.1667 79.5,34.5C 76.7883,36.8848 74.1216,39.2181 71.5,41.5C 69.9557,41.7031 68.6223,42.3698 67.5,43.5C 66.0171,40.3884 66.3504,37.5551 68.5,35C 67.0953,33.7308 65.4286,33.2308 63.5,33.5C 63.9371,31.9256 64.9371,30.7589 66.5,30C 69.0691,29.1016 71.4024,27.935 73.5,26.5C 75.717,25.6314 78.0504,25.298 80.5,25.5 Z"/></g>
<g><path style="opacity:1" fill="#b4ae5b" d="M 80.5,25.5 C 81.2389,25.369 81.9056,25.5357 82.5,26C 81.5,27.6667 80.1667,29 78.5,30C 80.1966,30.3845 81.8632,30.2178 83.5,29.5C 83.1667,30.1667 82.8333,30.8333 82.5,31.5C 80.8212,31.2852 79.8212,31.9519 79.5,33.5C 77.0517,35.2845 74.385,36.6178 71.5,37.5C 71.238,36.0222 71.5713,34.6888 72.5,33.5C 74.7052,30.1333 77.3719,27.4666 80.5,25.5 Z"/></g>
<g><path style="opacity:1" fill="#b2ad68" d="M 210.5,26.5 C 219.178,27.5007 227.844,28.5007 236.5,29.5C 238.027,29.427 239.027,30.0937 239.5,31.5C 234.924,29.7446 233.924,30.7446 236.5,34.5C 235.675,35.3857 234.675,35.719 233.5,35.5C 228.025,30.3046 221.358,28.1379 213.5,29C 212.058,28.6232 211.058,27.7899 210.5,26.5 Z"/></g>
<g><path style="opacity:1" fill="#d4d2b1" d="M 241.5,31.5 C 244.089,32.4194 246.089,34.086 247.5,36.5C 244.911,35.5806 242.911,33.914 241.5,31.5 Z"/></g>
<g><path style="opacity:1" fill="#b8af2d" d="M 218.5,35.5 C 220.924,36.0305 223.257,36.8638 225.5,38C 226.05,39.8446 227.05,41.3446 228.5,42.5C 229.799,41.91 230.632,40.91 231,39.5C 231.483,40.448 231.649,41.448 231.5,42.5C 230.626,43.5251 229.459,44.1918 228,44.5C 223.517,42.6704 219.017,41.0038 214.5,39.5C 213.417,42.9783 210.917,44.645 207,44.5C 203.101,44.8248 200.935,43.1582 200.5,39.5C 194.297,37.3452 187.963,37.0118 181.5,38.5C 173.009,34.9424 164.342,34.6091 155.5,37.5C 147.511,34.5845 139.511,34.2512 131.5,36.5C 130.757,37.1818 130.091,37.8485 129.5,38.5C 123.884,39.2412 118.217,40.9079 112.5,43.5C 109.777,41.6019 106.943,39.9352 104,38.5C 100.924,39.2883 97.7577,39.7883 94.5,40C 91.3094,40.7074 88.1428,42.2074 85,44.5C 82.1317,42.7192 78.9651,42.7192 75.5,44.5C 74.2638,43.7542 72.9305,43.4208 71.5,43.5C 71.5,42.8333 71.5,42.1667 71.5,41.5C 74.1216,39.2181 76.7883,36.8848 79.5,34.5C 81.1703,34.7512 82.6703,35.4178 84,36.5C 84.6838,35.2161 84.5171,34.0495 83.5,33C 95.0561,30.0874 106.389,30.9208 117.5,35.5C 120.442,34.1813 123.442,33.0146 126.5,32C 148.46,31.9215 170.127,31.9215 191.5,32C 192.325,33.6883 193.325,33.8549 194.5,32.5C 195.566,35.872 197.9,37.5386 201.5,37.5C 206.728,33.1382 212.395,32.4715 218.5,35.5 Z"/></g>
<g><path style="opacity:1" fill="#bab46b" d="M 73.5,26.5 C 71.4024,27.935 69.0691,29.1016 66.5,30C 64.9371,30.7589 63.9371,31.9256 63.5,33.5C 62.5084,33.3284 61.8417,33.6618 61.5,34.5C 59.5887,35.075 57.922,36.075 56.5,37.5C 53.6644,38.7755 50.6644,39.4422 47.5,39.5C 50.6397,37.272 53.3064,34.6053 55.5,31.5C 58.1085,31.5997 60.4418,30.9331 62.5,29.5C 66.0857,28.2074 69.7524,27.2074 73.5,26.5 Z"/></g>
<g><path style="opacity:1" fill="#b9b340" d="M 212.5,30.5 C 215.665,29.9635 218.331,30.7969 220.5,33C 225.007,33.7093 229.341,34.8759 233.5,36.5C 235.484,36.3832 237.15,37.0499 238.5,38.5C 241.932,42.5878 244.932,46.9212 247.5,51.5C 248.234,52.7079 248.567,54.0413 248.5,55.5C 245.215,52.7007 242.882,49.2007 241.5,45C 238.553,42.8358 235.219,42.0025 231.5,42.5C 231.649,41.448 231.483,40.448 231,39.5C 230.632,40.91 229.799,41.91 228.5,42.5C 227.05,41.3446 226.05,39.8446 225.5,38C 223.257,36.8638 220.924,36.0305 218.5,35.5C 217.567,32.456 215.567,30.7893 212.5,30.5 Z"/></g>
<g><path style="opacity:1" fill="#c2b935" d="M 231.5,42.5 C 235.219,42.0025 238.553,42.8358 241.5,45C 242.882,49.2007 245.215,52.7007 248.5,55.5C 250.776,58.7929 252.109,62.4596 252.5,66.5C 251.109,64.0404 249.942,61.3738 249,58.5C 247.416,57.1387 245.582,56.472 243.5,56.5C 240.903,53.8472 238.569,54.0139 236.5,57C 236.833,57.3333 237.167,57.6667 237.5,58C 236.552,58.4828 235.552,58.6495 234.5,58.5C 234.5,57.5 234.5,56.5 234.5,55.5C 232.396,55.7989 230.396,55.4656 228.5,54.5C 227.185,52.6841 225.685,51.0175 224,49.5C 223.667,50.1667 223.333,50.8333 223,51.5C 220.782,49.3813 218.282,49.048 215.5,50.5C 216.167,50.8333 216.833,51.1667 217.5,51.5C 216.147,52.5237 215.48,53.857 215.5,55.5C 209.795,55.4933 206.129,52.8266 204.5,47.5C 191.83,45.5731 179.163,43.5731 166.5,41.5C 159.009,40.5034 151.509,40.5034 144,41.5C 143.626,40.5838 143.126,39.7504 142.5,39C 137.999,39.3128 133.666,39.1462 129.5,38.5C 130.091,37.8485 130.757,37.1818 131.5,36.5C 139.511,34.2512 147.511,34.5845 155.5,37.5C 164.342,34.6091 173.009,34.9424 181.5,38.5C 187.963,37.0118 194.297,37.3452 200.5,39.5C 200.935,43.1582 203.101,44.8248 207,44.5C 210.917,44.645 213.417,42.9783 214.5,39.5C 219.017,41.0038 223.517,42.6704 228,44.5C 229.459,44.1918 230.626,43.5251 231.5,42.5 Z"/></g>
<g><path style="opacity:1" fill="#d2d0ab" d="M 55.5,31.5 C 53.3064,34.6053 50.6397,37.272 47.5,39.5C 44.7883,41.8848 42.1216,44.2181 39.5,46.5C 41.0908,43.5691 43.0908,40.9024 45.5,38.5C 48.9191,36.138 52.2525,33.8046 55.5,31.5 Z"/></g>
<g><path style="opacity:1" fill="#c6bc32" d="M 129.5,38.5 C 133.666,39.1462 137.999,39.3128 142.5,39C 143.126,39.7504 143.626,40.5838 144,41.5C 151.509,40.5034 159.009,40.5034 166.5,41.5C 166.389,42.1174 166.056,42.6174 165.5,43C 161.909,43.7886 158.409,43.6219 155,42.5C 154,43.5 153,44.5 152,45.5C 151.592,43.5904 150.425,42.5904 148.5,42.5C 146.523,43.4599 144.523,44.4599 142.5,45.5C 138.215,44.312 134.048,43.6453 130,43.5C 127.239,44.3084 124.572,45.3084 122,46.5C 121.439,45.9781 120.772,45.6448 120,45.5C 115.89,48.3209 111.89,51.3209 108,54.5C 105.957,52.792 104.29,50.792 103,48.5C 101.703,49.7836 100.536,49.6169 99.5,48C 99.8333,47.6667 100.167,47.3333 100.5,47C 98.9509,47.5219 97.4509,47.3553 96,46.5C 93.9987,48.4339 91.832,50.1006 89.5,51.5C 85.5408,52.3265 81.5408,52.8265 77.5,53C 75.4476,53.9299 73.9476,55.4299 73,57.5C 72.3109,56.6433 71.4776,55.9767 70.5,55.5C 67.7411,57.1224 64.7411,58.1224 61.5,58.5C 64.6048,53.2733 67.9381,48.2733 71.5,43.5C 72.9305,43.4208 74.2638,43.7542 75.5,44.5C 78.9651,42.7192 82.1317,42.7192 85,44.5C 88.1428,42.2074 91.3094,40.7074 94.5,40C 97.7577,39.7883 100.924,39.2883 104,38.5C 106.943,39.9352 109.777,41.6019 112.5,43.5C 118.217,40.9079 123.884,39.2412 129.5,38.5 Z"/></g>
<g><path style="opacity:1" fill="#c9c693" d="M 250.5,39.5 C 253.473,40.8103 255.807,42.8103 257.5,45.5C 256.167,45.1667 254.833,44.8333 253.5,44.5C 252.759,42.6458 251.759,40.9791 250.5,39.5 Z"/></g>
<g><path style="opacity:1" fill="#bdb865" d="M 239.5,31.5 C 240.167,31.5 240.833,31.5 241.5,31.5C 242.911,33.914 244.911,35.5806 247.5,36.5C 248.694,37.2719 249.694,38.2719 250.5,39.5C 247.35,39.1176 244.683,37.7843 242.5,35.5C 242.167,35.8333 241.833,36.1667 241.5,36.5C 242.93,39.6499 244.93,42.3165 247.5,44.5C 249.968,47.4052 251.135,50.7386 251,54.5C 250.241,52.9371 249.074,51.9371 247.5,51.5C 244.932,46.9212 241.932,42.5878 238.5,38.5C 237.15,37.0499 235.484,36.3832 233.5,36.5C 233.5,36.1667 233.5,35.8333 233.5,35.5C 234.675,35.719 235.675,35.3857 236.5,34.5C 233.924,30.7446 234.924,29.7446 239.5,31.5 Z"/></g>
<g><path style="opacity:1" fill="#c5bc55" d="M 61.5,34.5 C 57.9465,38.0699 54.4465,41.7365 51,45.5C 49.9914,47.0249 49.4914,48.6916 49.5,50.5C 47.2024,51.7966 45.2024,53.4632 43.5,55.5C 43.5,54.5 43.5,53.5 43.5,52.5C 46.075,50.1547 47.075,47.1547 46.5,43.5C 51.1281,43.518 54.4615,41.518 56.5,37.5C 57.922,36.075 59.5887,35.075 61.5,34.5 Z"/></g>
<g><path style="opacity:1" fill="#c9c383" d="M 47.5,39.5 C 46.8333,41.5 46.1667,43.5 45.5,45.5C 44.5,45.5 43.5,45.5 42.5,45.5C 42.762,46.9778 42.4287,48.3112 41.5,49.5C 40.1667,50.5 38.8333,51.5 37.5,52.5C 35.8542,55.8468 33.8542,58.8468 31.5,61.5C 31.5,60.8333 31.5,60.1667 31.5,59.5C 33.1991,57.4336 34.5324,55.1003 35.5,52.5C 36.3403,50.1475 37.6736,48.1475 39.5,46.5C 42.1216,44.2181 44.7883,41.8848 47.5,39.5 Z"/></g>
<g><path style="opacity:1" fill="#c4bc4d" d="M 250.5,39.5 C 251.759,40.9791 252.759,42.6458 253.5,44.5C 254.6,45.6049 255.267,46.9382 255.5,48.5C 258.834,53.6086 260.5,58.942 260.5,64.5C 258.119,61.0706 256.285,57.4039 255,53.5C 252.758,50.1858 250.258,47.1858 247.5,44.5C 244.93,42.3165 242.93,39.6499 241.5,36.5C 241.833,36.1667 242.167,35.8333 242.5,35.5C 244.683,37.7843 247.35,39.1176 250.5,39.5 Z"/></g>
<g><path style="opacity:1" fill="#cec439" d="M 166.5,41.5 C 179.163,43.5731 191.83,45.5731 204.5,47.5C 206.129,52.8266 209.795,55.4933 215.5,55.5C 215.48,53.857 216.147,52.5237 217.5,51.5C 216.833,51.1667 216.167,50.8333 215.5,50.5C 218.282,49.048 220.782,49.3813 223,51.5C 223.333,50.8333 223.667,50.1667 224,49.5C 225.685,51.0175 227.185,52.6841 228.5,54.5C 230.396,55.4656 232.396,55.7989 234.5,55.5C 234.5,56.5 234.5,57.5 234.5,58.5C 235.552,58.6495 236.552,58.4828 237.5,58C 237.167,57.6667 236.833,57.3333 236.5,57C 238.569,54.0139 240.903,53.8472 243.5,56.5C 242.272,58.0098 242.272,59.5098 243.5,61C 242.101,61.5946 240.768,61.4279 239.5,60.5C 238.5,61.1667 237.5,61.8333 236.5,62.5C 234.575,62.163 233.075,60.8297 232,58.5C 231.577,59.9561 230.744,60.4561 229.5,60C 228.568,55.1998 226.235,54.3665 222.5,57.5C 221.2,60.4323 219.2,62.7656 216.5,64.5C 211.524,63.5459 209.191,60.5459 209.5,55.5C 205.33,56.0072 202.33,54.3405 200.5,50.5C 199.692,50.8076 199.025,51.3076 198.5,52C 199.791,53.2917 199.791,54.4583 198.5,55.5C 196.236,56.2186 193.903,56.552 191.5,56.5C 191.5,55.5 191.5,54.5 191.5,53.5C 188.15,53.665 184.817,53.4983 181.5,53C 178.82,50.6982 175.653,49.5315 172,49.5C 169.182,49.9119 166.682,50.9119 164.5,52.5C 164.719,51.325 164.386,50.325 163.5,49.5C 162.059,50.304 160.559,50.9706 159,51.5C 156.941,49.4756 154.607,47.809 152,46.5C 151.51,47.7932 151.343,49.1266 151.5,50.5C 148.722,50.9783 146.722,49.9783 145.5,47.5C 144.749,48.376 144.249,49.376 144,50.5C 140.949,47.6261 138.282,47.9594 136,51.5C 135.25,50.8742 134.416,50.3742 133.5,50C 133.833,49.6667 134.167,49.3333 134.5,49C 133.391,48.3623 132.225,47.8623 131,47.5C 131.027,48.7883 130.027,49.7883 128,50.5C 127.586,50.0426 127.086,49.7093 126.5,49.5C 121.562,50.8991 116.895,52.8991 112.5,55.5C 112.157,60.5709 110.157,61.5709 106.5,58.5C 105.359,57.5745 105.359,56.7412 106.5,56C 103.79,54.2532 100.79,53.2532 97.5,53C 96.3333,52.5 95.5,51.6667 95,50.5C 92.2631,52.8281 89.4298,54.9948 86.5,57C 85.1667,57.6667 83.8333,57.6667 82.5,57C 83.6956,56.3457 83.6956,55.8457 82.5,55.5C 81.5224,55.9767 80.6891,56.6433 80,57.5C 79.6667,56.8333 79.3333,56.1667 79,55.5C 78.3161,57.359 77.3161,59.0257 76,60.5C 75.6667,59.8333 75.3333,59.1667 75,58.5C 72.6373,61.4398 69.804,62.7731 66.5,62.5C 64.4648,63.0412 62.4648,63.7078 60.5,64.5C 59.5329,66.7901 58.1996,68.7901 56.5,70.5C 52.5674,70.5887 49.7341,68.922 48,65.5C 47.6667,66.5 47.3333,67.5 47,68.5C 46.3333,67.1667 45.6667,67.1667 45,68.5C 44.8835,64.007 45.7168,59.6737 47.5,55.5C 48.1667,54.5 48.8333,53.5 49.5,52.5C 54.8859,52.2506 56.2193,54.584 53.5,59.5C 49.6221,60.8847 49.6221,62.0514 53.5,63C 52.8333,63.3333 52.1667,63.6667 51.5,64C 56.0864,64.5212 59.4198,62.6879 61.5,58.5C 64.7411,58.1224 67.7411,57.1224 70.5,55.5C 71.4776,55.9767 72.3109,56.6433 73,57.5C 73.9476,55.4299 75.4476,53.9299 77.5,53C 81.5408,52.8265 85.5408,52.3265 89.5,51.5C 91.832,50.1006 93.9987,48.4339 96,46.5C 97.4509,47.3553 98.9509,47.5219 100.5,47C 100.167,47.3333 99.8333,47.6667 99.5,48C 100.536,49.6169 101.703,49.7836 103,48.5C 104.29,50.792 105.957,52.792 108,54.5C 111.89,51.3209 115.89,48.3209 120,45.5C 120.772,45.6448 121.439,45.9781 122,46.5C 124.572,45.3084 127.239,44.3084 130,43.5C 134.048,43.6453 138.215,44.312 142.5,45.5C 144.523,44.4599 146.523,43.4599 148.5,42.5C 150.425,42.5904 151.592,43.5904 152,45.5C 153,44.5 154,43.5 155,42.5C 158.409,43.6219 161.909,43.7886 165.5,43C 166.056,42.6174 166.389,42.1174 166.5,41.5 Z"/></g>
<g><path style="opacity:1" fill="#e8e4c9" d="M 35.5,52.5 C 34.5324,55.1003 33.1991,57.4336 31.5,59.5C 31.7247,56.4542 33.058,54.1209 35.5,52.5 Z"/></g>
<g><path style="opacity:1" fill="#c6bc3e" d="M 63.5,33.5 C 65.4286,33.2308 67.0953,33.7308 68.5,35C 66.3504,37.5551 66.0171,40.3884 67.5,43.5C 68.6223,42.3698 69.9557,41.7031 71.5,41.5C 71.5,42.1667 71.5,42.8333 71.5,43.5C 67.9381,48.2733 64.6048,53.2733 61.5,58.5C 59.4198,62.6879 56.0864,64.5212 51.5,64C 52.1667,63.6667 52.8333,63.3333 53.5,63C 49.6221,62.0514 49.6221,60.8847 53.5,59.5C 56.2193,54.584 54.8859,52.2506 49.5,52.5C 49.5,51.8333 49.5,51.1667 49.5,50.5C 49.4914,48.6916 49.9914,47.0249 51,45.5C 54.4465,41.7365 57.9465,38.0699 61.5,34.5C 61.8417,33.6618 62.5084,33.3284 63.5,33.5 Z"/></g>
<g><path style="opacity:1" fill="#ccc885" d="M 253.5,44.5 C 254.833,44.8333 256.167,45.1667 257.5,45.5C 258.428,47.5991 259.928,49.2657 262,50.5C 263.139,54.1122 264.806,57.4456 267,60.5C 267.977,62.74 268.477,65.0733 268.5,67.5C 267.164,64.6808 265.497,62.0142 263.5,59.5C 262.054,57.4204 261.054,55.0871 260.5,52.5C 259.226,50.5486 257.56,49.2152 255.5,48.5C 255.267,46.9382 254.6,45.6049 253.5,44.5 Z"/></g>
<g><path style="opacity:1" fill="#d7d06e" d="M 32.5,71.5 C 33.3764,71.3691 34.0431,71.7025 34.5,72.5C 33.5131,80.7124 33.5131,89.0457 34.5,97.5C 33.9876,99.8838 33.3209,102.217 32.5,104.5C 33.7885,110.147 33.7885,115.813 32.5,121.5C 33.0888,124.022 33.7554,126.522 34.5,129C 33.9559,131.4 33.2892,133.733 32.5,136C 33.2003,143.063 33.5336,150.063 33.5,157C 33.3122,160.81 32.6456,164.477 31.5,168C 32.9667,174.09 33.6334,180.424 33.5,187C 32.5842,187.278 31.9175,187.778 31.5,188.5C 31.5,188.833 31.5,189.167 31.5,189.5C 28.9818,188.489 28.9818,187.156 31.5,185.5C 30.8333,185.167 30.1667,184.833 29.5,184.5C 30.2328,174.697 30.8995,164.864 31.5,155C 30.229,141.228 29.5623,127.394 29.5,113.5C 29.6667,100.833 29.8333,88.1667 30,75.5C 30.3333,77.1667 30.6667,78.8333 31,80.5C 31.3629,77.456 31.8629,74.456 32.5,71.5 Z"/></g>
<g><path style="opacity:1" fill="#d8ce55" d="M 49.5,50.5 C 49.5,51.1667 49.5,51.8333 49.5,52.5C 48.8333,53.5 48.1667,54.5 47.5,55.5C 42.2866,59.8182 41.2866,64.9848 44.5,71C 44.1294,78.4766 43.4627,86.1433 42.5,94C 43.5658,102.474 43.5658,110.974 42.5,119.5C 42.395,124.459 43.0617,128.959 44.5,133C 43.8333,134.333 42.8333,135.333 41.5,136C 42.9056,139.324 43.5722,142.824 43.5,146.5C 42.7432,158.284 42.7432,169.951 43.5,181.5C 43.0233,182.478 42.3567,183.311 41.5,184C 43.2482,184.08 44.9149,184.913 46.5,186.5C 46.1373,187.183 45.8039,187.85 45.5,188.5C 43.8333,188.5 42.1667,188.5 40.5,188.5C 40.6107,187.883 40.944,187.383 41.5,187C 39.9733,184.243 39.3066,181.243 39.5,178C 41.1636,172.051 41.8303,166.051 41.5,160C 40.7343,158.203 40.0676,156.369 39.5,154.5C 40.8333,151.833 40.8333,149.167 39.5,146.5C 39.9709,144.754 40.6376,143.087 41.5,141.5C 40.5354,139.671 39.5354,137.838 38.5,136C 39.715,132.139 39.715,128.306 38.5,124.5C 39.0933,122.618 39.7599,120.785 40.5,119C 39.7626,115.936 39.4292,112.936 39.5,110C 40.3091,108.216 40.9757,106.383 41.5,104.5C 39.7351,99.3371 39.0684,94.0037 39.5,88.5C 37.2733,86.3991 36.9399,83.8991 38.5,81C 38.2587,79.0164 37.5921,77.1831 36.5,75.5C 38.457,71.5437 39.2903,67.5437 39,63.5C 40.4277,60.6105 41.9277,57.9438 43.5,55.5C 45.2024,53.4632 47.2024,51.7966 49.5,50.5 Z"/></g>
<g><path style="opacity:1" fill="#d4cf67" d="M 247.5,44.5 C 250.258,47.1858 252.758,50.1858 255,53.5C 256.285,57.4039 258.119,61.0706 260.5,64.5C 260.5,58.942 258.834,53.6086 255.5,48.5C 257.56,49.2152 259.226,50.5486 260.5,52.5C 261.054,55.0871 262.054,57.4204 263.5,59.5C 263.637,64.9898 264.637,70.3231 266.5,75.5C 265.19,88.6321 264.523,101.799 264.5,115C 265.226,135.682 265.892,156.182 266.5,176.5C 265.618,179.791 264.952,183.124 264.5,186.5C 265.5,186.5 266.5,186.5 267.5,186.5C 267.608,188.514 266.942,190.18 265.5,191.5C 257.191,192.288 248.858,192.621 240.5,192.5C 247.301,191.762 253.967,190.429 260.5,188.5C 259.76,183.908 259.76,178.908 260.5,173.5C 260.75,161.75 260.75,149.917 260.5,138C 261.328,137.085 262.328,136.419 263.5,136C 261.968,135.3 260.968,134.134 260.5,132.5C 260.085,126.239 260.751,119.739 262.5,113C 261.705,98.762 261.371,84.5954 261.5,70.5C 259.315,70.2964 257.315,69.6298 255.5,68.5C 255.167,67.5 254.5,66.8333 253.5,66.5C 253.167,66.5 252.833,66.5 252.5,66.5C 252.109,62.4596 250.776,58.7929 248.5,55.5C 248.567,54.0413 248.234,52.7079 247.5,51.5C 249.074,51.9371 250.241,52.9371 251,54.5C 251.135,50.7386 249.968,47.4052 247.5,44.5 Z"/></g>
<g><path style="opacity:1" fill="#ddd558" d="M 214.5,71.5 C 217.983,71.8901 221.316,72.8901 224.5,74.5C 223.226,76.993 223.56,79.3263 225.5,81.5C 225.253,82.7133 224.586,83.38 223.5,83.5C 222.034,84.347 221.2,85.6803 221,87.5C 220.744,90.557 220.244,93.557 219.5,96.5C 220.167,97.8333 221.167,98.8333 222.5,99.5C 223.452,101.045 223.785,102.712 223.5,104.5C 222.5,104.5 221.5,104.5 220.5,104.5C 219.828,107.908 220.828,110.575 223.5,112.5C 220.671,113.825 220.004,115.825 221.5,118.5C 222.396,117.494 223.062,117.494 223.5,118.5C 222.385,119.598 222.385,120.765 223.5,122C 221.998,123.752 220.998,125.752 220.5,128C 221.833,130.333 221.833,132.667 220.5,135C 220.613,136.28 221.28,137.113 222.5,137.5C 223.204,140.704 223.87,143.871 224.5,147C 224.167,147.333 223.833,147.667 223.5,148C 224.428,148.388 225.095,149.055 225.5,150C 222.855,153.076 222.855,156.076 225.5,159C 224.38,163.771 223.38,168.605 222.5,173.5C 221.735,174.612 220.735,175.279 219.5,175.5C 219.08,173.906 218.414,172.406 217.5,171C 218.895,168.431 218.228,166.431 215.5,165C 216.328,164.085 217.328,163.419 218.5,163C 217.864,160.606 217.864,158.106 218.5,155.5C 217.325,155.719 216.325,155.386 215.5,154.5C 217.213,153.122 218.547,151.455 219.5,149.5C 218.527,147.608 217.86,145.608 217.5,143.5C 218.738,140.06 218.738,136.893 217.5,134C 218.718,132.562 219.385,130.895 219.5,129C 218.926,125.311 218.259,121.644 217.5,118C 217.652,107.226 218.319,96.2263 219.5,85C 218.877,81.5187 218.377,78.0187 218,74.5C 216.482,73.8366 215.315,72.8366 214.5,71.5 Z"/></g>
<g><path style="opacity:1" fill="#d6cf43" d="M 252.5,188.5 C 244.555,189.437 236.555,189.77 228.5,189.5C 228.67,188.178 228.337,187.011 227.5,186C 230.876,185.693 232.21,183.86 231.5,180.5C 230.5,180.5 229.5,180.5 228.5,180.5C 228.855,177.933 229.521,175.433 230.5,173C 230.025,171.237 229.358,169.57 228.5,168C 229.26,166.559 229.926,165.059 230.5,163.5C 230.376,162.893 230.043,162.56 229.5,162.5C 230.759,159.634 231.759,156.634 232.5,153.5C 229.562,150.856 228.562,147.69 229.5,144C 230.938,143.781 232.271,143.281 233.5,142.5C 231.264,138.88 231.598,135.38 234.5,132C 234.201,130.68 234.034,129.18 234,127.5C 233.173,126.338 232.34,125.171 231.5,124C 233.942,121.064 235.608,117.731 236.5,114C 234.416,112.252 232.416,110.418 230.5,108.5C 231.32,106.889 232.654,106.222 234.5,106.5C 234.593,102.94 234.26,99.6063 233.5,96.5C 235.555,95.8128 237.221,94.6461 238.5,93C 237.584,92.6258 236.75,92.1258 236,91.5C 235.45,88.7366 234.617,86.0699 233.5,83.5C 234.055,81.2779 235.055,79.2779 236.5,77.5C 236.333,76.8333 236.167,76.1667 236,75.5C 234.412,73.5792 232.912,71.5792 231.5,69.5C 233.187,68.432 234.854,68.5986 236.5,70C 236.167,70.3333 235.833,70.6667 235.5,71C 237.107,72.049 237.773,73.549 237.5,75.5C 241.584,74.5657 245.584,75.0657 249.5,77C 248.874,77.7504 248.374,78.5838 248,79.5C 247.958,83.9804 247.792,88.3137 247.5,92.5C 244.75,92.618 242.75,93.9514 241.5,96.5C 243.382,98.0432 245.382,98.8765 247.5,99C 247.05,100.285 246.383,101.452 245.5,102.5C 241.065,103.926 239.065,106.926 239.5,111.5C 242.157,111.838 244.49,111.171 246.5,109.5C 247.95,110.85 248.617,112.516 248.5,114.5C 244.839,114.35 243.839,115.85 245.5,119C 242.873,120.31 240.54,121.977 238.5,124C 240.275,127.112 242.442,129.945 245,132.5C 245.091,134.796 244.924,137.13 244.5,139.5C 249.127,145.985 248.46,151.818 242.5,157C 243.873,160.873 245.539,164.539 247.5,168C 246.347,169.883 244.681,170.716 242.5,170.5C 242.332,174.733 243.665,175.733 246.5,173.5C 246.833,173.833 247.167,174.167 247.5,174.5C 245.975,177.278 244.975,180.278 244.5,183.5C 242.954,184.684 241.287,185.684 239.5,186.5C 239.833,186.833 240.167,187.167 240.5,187.5C 242.709,186.894 244.876,186.227 247,185.5C 248.719,186.869 250.552,187.869 252.5,188.5 Z"/></g>
<g><path style="opacity:1" fill="#d6cf5d" d="M 255.5,68.5 C 257.315,69.6298 259.315,70.2964 261.5,70.5C 261.371,84.5954 261.705,98.762 262.5,113C 260.751,119.739 260.085,126.239 260.5,132.5C 260.968,134.134 261.968,135.3 263.5,136C 262.328,136.419 261.328,137.085 260.5,138C 260.75,149.917 260.75,161.75 260.5,173.5C 259.416,161.195 259.416,148.695 260.5,136C 259.788,131.485 258.454,127.152 256.5,123C 258.059,121.004 258.726,118.671 258.5,116C 257.243,102.603 257.243,89.1035 258.5,75.5C 258.241,72.7197 257.241,70.3864 255.5,68.5 Z"/></g>
<g><path style="opacity:1" fill="#e3da4b" d="M 175.5,66.5 C 173.887,69.1318 172.22,71.7984 170.5,74.5C 171.292,76.1949 170.958,77.8615 169.5,79.5C 167.979,79.8797 166.313,80.0464 164.5,80C 167.052,82.1542 169.052,84.8209 170.5,88C 167.833,91.6667 167.833,95.3333 170.5,99C 169.975,99.6924 169.308,100.192 168.5,100.5C 167.96,104.814 166.96,108.981 165.5,113C 166.781,116.525 168.114,120.025 169.5,123.5C 168.195,127.951 166.861,132.451 165.5,137C 168.029,139.989 168.029,142.989 165.5,146C 167.589,148.615 167.922,151.449 166.5,154.5C 167.5,155.833 168.5,157.167 169.5,158.5C 168.046,161.124 166.713,163.79 165.5,166.5C 166.006,169.391 167.006,172.058 168.5,174.5C 167.675,175.386 166.675,175.719 165.5,175.5C 165.848,180.222 166.515,184.889 167.5,189.5C 169.5,189.5 171.5,189.5 173.5,189.5C 173.5,189.833 173.5,190.167 173.5,190.5C 155.5,190.5 137.5,190.5 119.5,190.5C 119.5,190.167 119.5,189.833 119.5,189.5C 122.167,189.5 124.833,189.5 127.5,189.5C 127.416,185.669 128.083,182.002 129.5,178.5C 128.5,178.5 127.5,178.5 126.5,178.5C 126.38,176.266 126.713,174.099 127.5,172C 126.491,170.832 125.491,169.665 124.5,168.5C 125.006,165.609 126.006,162.942 127.5,160.5C 125.625,157.105 125.458,153.772 127,150.5C 127.333,150.833 127.667,151.167 128,151.5C 128.977,148.898 130.144,146.398 131.5,144C 130.675,142.312 129.675,142.145 128.5,143.5C 127.719,144.729 127.219,146.062 127,147.5C 126.25,146.874 125.416,146.374 124.5,146C 125.679,142.47 127.012,138.97 128.5,135.5C 124.98,131.246 124.646,126.746 127.5,122C 126.314,118.669 126.98,115.669 129.5,113C 129.167,112.5 128.833,112 128.5,111.5C 127.833,112.5 127.167,113.5 126.5,114.5C 126.167,114 125.833,113.5 125.5,113C 126.79,109.819 126.79,106.652 125.5,103.5C 126.528,101.639 128.028,100.305 130,99.5C 130.49,98.2068 130.657,96.8734 130.5,95.5C 129.448,95.6495 128.448,95.4828 127.5,95C 128.127,92.6566 129.127,90.4899 130.5,88.5C 129.271,87.7189 127.938,87.2189 126.5,87C 130.859,85.4966 131.359,83.33 128,80.5C 127.112,75.7506 126.946,71.0839 127.5,66.5C 124.687,66.9754 122.687,65.9754 121.5,63.5C 124.244,63.7521 126.744,63.0855 129,61.5C 131.244,61.8667 131.744,62.8667 130.5,64.5C 132.494,66.9166 134.327,66.9166 136,64.5C 139.762,64.6307 143.595,65.2974 147.5,66.5C 147.45,64.4099 148.45,63.0766 150.5,62.5C 152.929,64.7613 154.762,67.428 156,70.5C 158.468,69.8957 160.468,68.5624 162,66.5C 163.044,67.6226 163.71,68.9559 164,70.5C 165.585,69.6243 166.585,68.2909 167,66.5C 168.368,67.9931 168.535,69.4931 167.5,71C 168,71.1667 168.5,71.3333 169,71.5C 171.181,69.7338 173.348,68.0671 175.5,66.5 Z"/></g>
<g><path style="opacity:1" fill="#d5cf75" d="M 263.5,59.5 C 265.497,62.0142 267.164,64.6808 268.5,67.5C 268.827,107.239 268.494,146.906 267.5,186.5C 266.5,186.5 265.5,186.5 264.5,186.5C 264.952,183.124 265.618,179.791 266.5,176.5C 265.892,156.182 265.226,135.682 264.5,115C 264.523,101.799 265.19,88.6321 266.5,75.5C 264.637,70.3231 263.637,64.9898 263.5,59.5 Z"/></g>
<g><path style="opacity:1" fill="#e3da56" d="M 197.5,59.5 C 199.953,60.8165 202.62,61.6498 205.5,62C 207.799,65.0867 210.632,67.5867 214,69.5C 214.464,70.0944 214.631,70.7611 214.5,71.5C 209.915,68.7988 205.082,66.4654 200,64.5C 198.745,65.2106 197.579,66.044 196.5,67C 194.276,67.0395 192.276,67.2062 190.5,67.5C 188.83,67.7512 187.33,68.4178 186,69.5C 185.586,69.0426 185.086,68.7093 184.5,68.5C 182.527,69.6399 180.693,70.9733 179,72.5C 177.584,77.7807 175.417,82.6141 172.5,87C 173.825,86.8516 174.992,87.0183 176,87.5C 175.523,90.454 175.356,93.2873 175.5,96C 176.833,96.6667 177.833,97.6667 178.5,99C 177.582,101.133 177.416,103.3 178,105.5C 177.667,105.833 177.333,106.167 177,106.5C 176.012,103.576 175.346,100.576 175,97.5C 173.228,98.9901 173.061,100.657 174.5,102.5C 173.689,103.216 173.022,104.05 172.5,105C 173.477,106.497 174.477,107.997 175.5,109.5C 175.679,114.774 175.346,120.107 174.5,125.5C 176.143,131.778 176.81,137.945 176.5,144C 173.246,145.518 172.746,147.685 175,150.5C 175.914,149.346 176.747,149.513 177.5,151C 176.62,152.356 176.286,153.856 176.5,155.5C 172.044,155.896 171.71,156.896 175.5,158.5C 176.12,161.674 175.453,164.674 173.5,167.5C 174.167,168.833 174.833,170.167 175.5,171.5C 174.533,174.486 174.199,177.32 174.5,180C 175.67,181.755 177.337,182.755 179.5,183C 177.726,183.881 177.06,185.047 177.5,186.5C 176.614,185.675 176.281,184.675 176.5,183.5C 175.5,183.5 174.5,183.5 173.5,183.5C 173.5,185.5 173.5,187.5 173.5,189.5C 171.5,189.5 169.5,189.5 167.5,189.5C 166.515,184.889 165.848,180.222 165.5,175.5C 166.675,175.719 167.675,175.386 168.5,174.5C 167.006,172.058 166.006,169.391 165.5,166.5C 166.713,163.79 168.046,161.124 169.5,158.5C 168.5,157.167 167.5,155.833 166.5,154.5C 167.922,151.449 167.589,148.615 165.5,146C 168.029,142.989 168.029,139.989 165.5,137C 166.861,132.451 168.195,127.951 169.5,123.5C 168.114,120.025 166.781,116.525 165.5,113C 166.96,108.981 167.96,104.814 168.5,100.5C 169.308,100.192 169.975,99.6924 170.5,99C 167.833,95.3333 167.833,91.6667 170.5,88C 169.052,84.8209 167.052,82.1542 164.5,80C 166.313,80.0464 167.979,79.8797 169.5,79.5C 170.958,77.8615 171.292,76.1949 170.5,74.5C 172.22,71.7984 173.887,69.1318 175.5,66.5C 178.297,66.0334 179.631,64.3667 179.5,61.5C 185.844,61.3224 191.844,60.6558 197.5,59.5 Z"/></g>
<g><path style="opacity:1" fill="#d8d065" d="M 43.5,52.5 C 43.5,53.5 43.5,54.5 43.5,55.5C 41.9277,57.9438 40.4277,60.6105 39,63.5C 39.2903,67.5437 38.457,71.5437 36.5,75.5C 37.5921,77.1831 38.2587,79.0164 38.5,81C 36.9399,83.8991 37.2733,86.3991 39.5,88.5C 37.8985,89.5188 36.8985,91.0188 36.5,93C 36.7991,98.0685 36.7991,103.068 36.5,108C 37.3567,108.689 38.0233,109.522 38.5,110.5C 37.4161,120.012 36.0827,129.512 34.5,139C 35.3466,154.254 35.3466,169.587 34.5,185C 35.6226,186.044 36.9559,186.71 38.5,187C 37.2625,187.232 36.2625,187.732 35.5,188.5C 34.1667,188.5 32.8333,188.5 31.5,188.5C 31.9175,187.778 32.5842,187.278 33.5,187C 33.6334,180.424 32.9667,174.09 31.5,168C 32.6456,164.477 33.3122,160.81 33.5,157C 33.5336,150.063 33.2003,143.063 32.5,136C 33.2892,133.733 33.9559,131.4 34.5,129C 33.7554,126.522 33.0888,124.022 32.5,121.5C 33.7885,115.813 33.7885,110.147 32.5,104.5C 33.3209,102.217 33.9876,99.8838 34.5,97.5C 33.5131,89.0457 33.5131,80.7124 34.5,72.5C 34.0431,71.7025 33.3764,71.3691 32.5,71.5C 33.5778,68.5979 34.2444,65.5979 34.5,62.5C 37.6449,61.9233 39.1449,59.9233 39,56.5C 40.3712,54.9586 41.8712,53.6253 43.5,52.5 Z"/></g>
<g><path style="opacity:1" fill="#d7ce49" d="M 47.5,55.5 C 45.7168,59.6737 44.8835,64.007 45,68.5C 45.6667,67.1667 46.3333,67.1667 47,68.5C 47.3333,67.5 47.6667,66.5 48,65.5C 49.7341,68.922 52.5674,70.5887 56.5,70.5C 54.7582,71.9573 52.7582,73.124 50.5,74C 51.1798,82.803 51.8465,91.6363 52.5,100.5C 49.6485,104.119 49.9818,107.286 53.5,110C 53.1667,110.333 52.8333,110.667 52.5,111C 53.2931,112.085 53.9598,113.252 54.5,114.5C 50.6917,123.864 49.6917,133.531 51.5,143.5C 51.5189,146.206 50.8522,148.706 49.5,151C 50.5784,151.674 51.2451,152.674 51.5,154C 49.3822,157.793 49.3822,161.46 51.5,165C 50.8333,165.667 50.1667,166.333 49.5,167C 50.8511,169.342 51.1845,171.675 50.5,174C 50.9842,176.475 52.3175,178.308 54.5,179.5C 48.9371,182.703 49.2704,185.036 55.5,186.5C 52.1792,187.33 48.8458,187.997 45.5,188.5C 45.8039,187.85 46.1373,187.183 46.5,186.5C 44.9149,184.913 43.2482,184.08 41.5,184C 42.3567,183.311 43.0233,182.478 43.5,181.5C 42.7432,169.951 42.7432,158.284 43.5,146.5C 43.5722,142.824 42.9056,139.324 41.5,136C 42.8333,135.333 43.8333,134.333 44.5,133C 43.0617,128.959 42.395,124.459 42.5,119.5C 43.5658,110.974 43.5658,102.474 42.5,94C 43.4627,86.1433 44.1294,78.4766 44.5,71C 41.2866,64.9848 42.2866,59.8182 47.5,55.5 Z"/></g>
<g><path style="opacity:1" fill="#e3da54" d="M 114.5,63.5 C 116.833,64.8333 119.167,64.8333 121.5,63.5C 122.687,65.9754 124.687,66.9754 127.5,66.5C 126.946,71.0839 127.112,75.7506 128,80.5C 131.359,83.33 130.859,85.4966 126.5,87C 127.938,87.2189 129.271,87.7189 130.5,88.5C 129.127,90.4899 128.127,92.6566 127.5,95C 128.448,95.4828 129.448,95.6495 130.5,95.5C 130.657,96.8734 130.49,98.2068 130,99.5C 128.028,100.305 126.528,101.639 125.5,103.5C 126.79,106.652 126.79,109.819 125.5,113C 125.833,113.5 126.167,114 126.5,114.5C 127.167,113.5 127.833,112.5 128.5,111.5C 128.833,112 129.167,112.5 129.5,113C 126.98,115.669 126.314,118.669 127.5,122C 124.646,126.746 124.98,131.246 128.5,135.5C 127.012,138.97 125.679,142.47 124.5,146C 125.416,146.374 126.25,146.874 127,147.5C 127.219,146.062 127.719,144.729 128.5,143.5C 129.675,142.145 130.675,142.312 131.5,144C 130.144,146.398 128.977,148.898 128,151.5C 127.667,151.167 127.333,150.833 127,150.5C 125.458,153.772 125.625,157.105 127.5,160.5C 126.006,162.942 125.006,165.609 124.5,168.5C 125.491,169.665 126.491,170.832 127.5,172C 126.713,174.099 126.38,176.266 126.5,178.5C 127.5,178.5 128.5,178.5 129.5,178.5C 128.083,182.002 127.416,185.669 127.5,189.5C 124.833,189.5 122.167,189.5 119.5,189.5C 120.116,188.648 121.449,187.815 123.5,187C 122.833,186.333 122.167,185.667 121.5,185C 125.976,180.56 126.476,175.726 123,170.5C 122.331,173.267 121.164,173.767 119.5,172C 120.625,170.037 121.959,168.204 123.5,166.5C 122.413,165.895 121.246,166.228 120,167.5C 119.333,166.5 119.333,165.5 120,164.5C 121.296,162.469 122.796,160.636 124.5,159C 123.452,157.244 123.452,155.41 124.5,153.5C 124.182,152.353 123.516,151.519 122.5,151C 124.458,142.803 125.125,134.803 124.5,127C 121.681,124.28 122.014,121.947 125.5,120C 122.097,112.871 122.097,105.538 125.5,98C 125.219,95.7084 124.552,93.5417 123.5,91.5C 122.365,90.8973 121.365,90.5639 120.5,90.5C 121.945,88.9373 123.611,87.604 125.5,86.5C 126.954,84.3326 126.788,82.3326 125,80.5C 124.085,81.3279 123.419,82.3279 123,83.5C 120.848,81.7227 121.015,80.2227 123.5,79C 122.692,77.2942 121.359,76.4609 119.5,76.5C 119.286,74.8561 119.62,73.3561 120.5,72C 117.971,69.9715 115.304,68.1381 112.5,66.5C 113.612,65.7348 114.279,64.7348 114.5,63.5 Z"/></g>
<g><path style="opacity:1" fill="#dfd864" d="M 214.5,71.5 C 215.315,72.8366 216.482,73.8366 218,74.5C 218.377,78.0187 218.877,81.5187 219.5,85C 218.319,96.2263 217.652,107.226 217.5,118C 218.259,121.644 218.926,125.311 219.5,129C 219.385,130.895 218.718,132.562 217.5,134C 218.738,136.893 218.738,140.06 217.5,143.5C 217.86,145.608 218.527,147.608 219.5,149.5C 218.547,151.455 217.213,153.122 215.5,154.5C 216.325,155.386 217.325,155.719 218.5,155.5C 217.864,158.106 217.864,160.606 218.5,163C 217.328,163.419 216.328,164.085 215.5,165C 218.228,166.431 218.895,168.431 217.5,171C 218.414,172.406 219.08,173.906 219.5,175.5C 220.762,180.181 220.762,184.848 219.5,189.5C 216.57,190.299 213.57,190.632 210.5,190.5C 209.957,187.633 210.623,184.8 212.5,182C 212.294,180.135 211.628,178.468 210.5,177C 212.356,174.394 212.356,171.56 210.5,168.5C 211.242,167.713 212.075,167.047 213,166.5C 212.476,162.794 212.642,159.127 213.5,155.5C 212.5,155.5 211.5,155.5 210.5,155.5C 210.762,156.978 210.429,158.311 209.5,159.5C 209.167,159.167 208.833,158.833 208.5,158.5C 209.23,155.891 209.73,153.224 210,150.5C 211.544,148.532 212.711,146.365 213.5,144C 212.328,143.647 211.162,143.813 210,144.5C 208.941,144.37 208.108,143.87 207.5,143C 212.98,138.887 213.98,133.721 210.5,127.5C 207.833,126.167 207.833,124.833 210.5,123.5C 212.284,124.34 213.284,123.507 213.5,121C 210.079,112.918 210.079,105.085 213.5,97.5C 213.023,96.5224 212.357,95.6891 211.5,95C 212.316,93.077 212.983,91.077 213.5,89C 213.39,85.114 213.39,81.2807 213.5,77.5C 212.5,77.5 211.5,77.5 210.5,77.5C 210.178,75.2776 210.845,73.4443 212.5,72C 210.382,71.7398 208.716,70.7398 207.5,69C 205.153,68.5639 202.819,68.0639 200.5,67.5C 196.211,69.2652 191.877,70.5985 187.5,71.5C 188.5,70.1667 189.5,68.8333 190.5,67.5C 192.276,67.2062 194.276,67.0395 196.5,67C 197.579,66.044 198.745,65.2106 200,64.5C 205.082,66.4654 209.915,68.7988 214.5,71.5 Z"/></g>
<g><path style="opacity:1" fill="#d5d286" d="M 268.5,67.5 C 269.167,67.5 269.5,67.8333 269.5,68.5C 269.822,109.543 269.489,150.543 268.5,191.5C 267.5,191.5 266.5,191.5 265.5,191.5C 266.942,190.18 267.608,188.514 267.5,186.5C 268.494,146.906 268.827,107.239 268.5,67.5 Z"/></g>
<g><path style="opacity:1" fill="#e1e0b3" d="M 269.5,68.5 C 270.665,108.998 270.831,149.665 270,190.5C 269.617,191.056 269.117,191.389 268.5,191.5C 269.489,150.543 269.822,109.543 269.5,68.5 Z"/></g>
<g><path style="opacity:1" fill="#e4dd73" d="M 109.5,77.5 C 107.031,82.9931 107.031,88.4931 109.5,94C 108.437,95.1882 107.103,95.6882 105.5,95.5C 105.627,98.8158 106.627,101.816 108.5,104.5C 106.726,107.85 107.726,109.516 111.5,109.5C 111.808,111.924 111.474,114.257 110.5,116.5C 106.892,118.508 106.558,121.008 109.5,124C 106.375,128.001 105.208,132.501 106,137.5C 108.517,139.457 109.684,142.124 109.5,145.5C 109.422,150.227 108.422,154.727 106.5,159C 107.448,159.483 108.448,159.649 109.5,159.5C 109.722,162.39 109.055,165.057 107.5,167.5C 109.503,169.133 110.836,171.133 111.5,173.5C 108.477,173.105 107.477,174.105 108.5,176.5C 108.413,181.357 106.747,185.524 103.5,189C 105.5,189.333 107.5,189.667 109.5,190C 102.508,190.5 95.5079,190.666 88.5,190.5C 87.4324,189.566 86.099,189.232 84.5,189.5C 84.6199,187.266 84.2865,185.099 83.5,183C 86.7665,178.114 86.7665,173.448 83.5,169C 84.2113,166.204 84.878,163.37 85.5,160.5C 84.5934,157.579 84.2601,154.579 84.5,151.5C 87.3356,151.798 87.8356,151.131 86,149.5C 85.7822,146.574 85.2822,143.74 84.5,141C 85.3081,140.692 85.9747,140.192 86.5,139.5C 84.6963,134.618 83.363,129.618 82.5,124.5C 84.5137,121.643 85.5137,118.476 85.5,115C 84.3419,110.544 83.8419,106.044 84,101.5C 84.7922,99.4127 85.9588,97.5793 87.5,96C 86.5,95.6667 85.5,95.3333 84.5,95C 85.8333,94 85.8333,93 84.5,92C 86.9529,90.1521 87.9529,87.6521 87.5,84.5C 86.5,84.5 85.5,84.5 84.5,84.5C 84.5467,81.4318 85.0467,78.4318 86,75.5C 87.3204,75.201 88.8204,75.0343 90.5,75C 91.2157,70.5346 92.549,70.368 94.5,74.5C 97.6394,75.6028 100.806,75.6028 104,74.5C 106.192,74.8627 108.026,75.8627 109.5,77.5 Z"/></g>
<g><path style="opacity:1" fill="#e6de7a" d="M 91.5,77.5 C 93.2753,77.0205 95.1086,76.6872 97,76.5C 98.5,76.6667 99.3333,77.5 99.5,79C 98.6831,80.49 97.8498,81.99 97,83.5C 96.6667,83.1667 96.3333,82.8333 96,82.5C 95.044,83.5786 94.2106,84.7453 93.5,86C 95.9589,86.724 96.9589,88.0573 96.5,90C 99.0443,91.7748 99.0443,93.6082 96.5,95.5C 97.4345,99.3215 97.7679,103.322 97.5,107.5C 97.1667,108.167 96.8333,108.833 96.5,109.5C 92.4961,106.873 91.9961,107.207 95,110.5C 95.8263,118.473 96.3263,118.473 96.5,110.5C 99.9103,110.616 101.244,108.95 100.5,105.5C 101.5,105.5 102.5,105.5 103.5,105.5C 103.488,108.688 102.488,111.522 100.5,114C 100.509,115.404 101.009,116.57 102,117.5C 103,116.167 104,116.167 105,117.5C 105.49,118.793 105.657,120.127 105.5,121.5C 103.023,121.051 101.023,121.717 99.5,123.5C 101.792,124.79 103.792,126.457 105.5,128.5C 104.469,129.7 103.635,131.034 103,132.5C 102.517,131.552 102.351,130.552 102.5,129.5C 100.833,129.5 99.1667,129.5 97.5,129.5C 97.281,130.675 97.6143,131.675 98.5,132.5C 101.751,132.868 102.751,134.368 101.5,137C 103.038,140.724 103.538,144.557 103,148.5C 102.075,149.047 101.242,149.713 100.5,150.5C 105.999,154.328 106.832,158.995 103,164.5C 102.586,164.043 102.086,163.709 101.5,163.5C 100.534,165.396 100.201,167.396 100.5,169.5C 102.5,168.833 104.5,168.167 106.5,167.5C 105.969,170.237 105.136,172.904 104,175.5C 102.649,173.981 101.149,172.648 99.5,171.5C 98.9149,173.865 97.7482,175.865 96,177.5C 95.2747,175.842 94.108,175.342 92.5,176C 93.7836,177.297 93.6169,178.464 92,179.5C 86.6309,177.411 86.4642,175.411 91.5,173.5C 90.8938,171.291 90.2272,169.124 89.5,167C 92.3552,164.664 92.0218,162.831 88.5,161.5C 87.3861,160.277 87.2195,158.944 88,157.5C 93.4716,163.285 94.9716,162.619 92.5,155.5C 93.8991,153.109 93.5657,150.943 91.5,149C 90.9582,146.073 91.6248,143.24 93.5,140.5C 92.3112,139.571 90.9778,139.238 89.5,139.5C 90.2215,134.982 92.3882,134.315 96,137.5C 94.5183,133.281 92.6849,128.947 90.5,124.5C 93.2076,119.643 92.8743,115.143 89.5,111C 92.2594,108.426 91.926,106.26 88.5,104.5C 95.3789,101.518 96.0455,97.351 90.5,92C 90.5451,89.3635 90.7118,86.5302 91,83.5C 91.4652,82.0692 92.2986,80.9025 93.5,80C 91.8225,79.5161 91.1558,78.6828 91.5,77.5 Z"/></g>
<g><path style="opacity:1" fill="#dfd55b" d="M 106.5,68.5 C 106.586,69.4959 106.252,70.3292 105.5,71C 101.848,71.4986 98.1817,71.6653 94.5,71.5C 92.9894,69.5589 90.9894,69.0589 88.5,70C 87.6634,71.0113 87.33,72.1779 87.5,73.5C 83.649,74.7034 82.3157,77.2034 83.5,81C 83.2451,82.3261 82.5784,83.3261 81.5,84C 82.1959,88.1337 82.8625,92.3004 83.5,96.5C 82.6171,97.548 81.9504,98.7147 81.5,100C 82.6901,101.808 82.6901,103.641 81.5,105.5C 81.8868,107.274 82.5535,108.941 83.5,110.5C 80.9767,112.255 80.9767,114.089 83.5,116C 80.4528,120.024 78.9528,124.524 79,129.5C 79.5556,127.405 80.0556,127.238 80.5,129C 79.938,132.316 78.938,135.483 77.5,138.5C 78.1667,139.833 78.8333,141.167 79.5,142.5C 77.7629,147.12 78.4295,151.287 81.5,155C 81.0097,156.982 80.0097,158.649 78.5,160C 79.009,162.693 80.009,165.193 81.5,167.5C 81.8595,170.416 81.1929,173.25 79.5,176C 79.4387,178.279 80.1054,180.279 81.5,182C 81.1639,183.03 80.4972,183.53 79.5,183.5C 76.1916,177.015 75.8583,170.348 78.5,163.5C 77.9067,161.618 77.2401,159.785 76.5,158C 77.008,148.71 77.3413,139.376 77.5,130C 77.1492,126.93 76.4826,123.93 75.5,121C 76.751,117.953 76.751,114.953 75.5,112C 77.4497,109.332 77.783,106.498 76.5,103.5C 76.7494,100.823 77.7494,98.4899 79.5,96.5C 76.0189,92.9017 76.0189,89.5683 79.5,86.5C 75.9709,83.1784 75.6376,79.5117 78.5,75.5C 81.7399,73.8975 83.2399,71.2308 83,67.5C 84.3561,66.6198 85.8561,66.2865 87.5,66.5C 87.5,65.5 87.5,64.5 87.5,63.5C 90.5,63.1667 91.8333,64.5 91.5,67.5C 94.3903,67.278 97.057,67.9447 99.5,69.5C 101.747,68.6258 104.08,68.2924 106.5,68.5 Z"/></g>
<g><path style="opacity:1" fill="#d6ce48" d="M 243.5,56.5 C 245.582,56.472 247.416,57.1387 249,58.5C 249.942,61.3738 251.109,64.0404 252.5,66.5C 252.833,66.5 253.167,66.5 253.5,66.5C 254.996,73.7479 255.996,81.0813 256.5,88.5C 256.023,89.4776 255.357,90.3109 254.5,91C 256.028,97.553 256.695,104.386 256.5,111.5C 255.5,111.5 254.5,111.5 253.5,111.5C 253.387,114.049 254.054,116.382 255.5,118.5C 254.833,120.5 254.167,122.5 253.5,124.5C 255.094,127.991 255.761,131.658 255.5,135.5C 254.448,135.351 253.448,135.517 252.5,136C 254.314,136.92 255.314,138.42 255.5,140.5C 255.47,147.891 255.136,155.558 254.5,163.5C 254.76,165.187 255.427,166.687 256.5,168C 255.308,170.572 254.308,173.239 253.5,176C 255.564,180.116 256.23,184.283 255.5,188.5C 254.5,188.5 253.5,188.5 252.5,188.5C 250.552,187.869 248.719,186.869 247,185.5C 244.876,186.227 242.709,186.894 240.5,187.5C 240.167,187.167 239.833,186.833 239.5,186.5C 241.287,185.684 242.954,184.684 244.5,183.5C 244.975,180.278 245.975,177.278 247.5,174.5C 247.167,174.167 246.833,173.833 246.5,173.5C 243.665,175.733 242.332,174.733 242.5,170.5C 244.681,170.716 246.347,169.883 247.5,168C 245.539,164.539 243.873,160.873 242.5,157C 248.46,151.818 249.127,145.985 244.5,139.5C 244.924,137.13 245.091,134.796 245,132.5C 242.442,129.945 240.275,127.112 238.5,124C 240.54,121.977 242.873,120.31 245.5,119C 243.839,115.85 244.839,114.35 248.5,114.5C 248.617,112.516 247.95,110.85 246.5,109.5C 244.49,111.171 242.157,111.838 239.5,111.5C 239.065,106.926 241.065,103.926 245.5,102.5C 246.383,101.452 247.05,100.285 247.5,99C 245.382,98.8765 243.382,98.0432 241.5,96.5C 242.75,93.9514 244.75,92.618 247.5,92.5C 247.792,88.3137 247.958,83.9804 248,79.5C 248.374,78.5838 248.874,77.7504 249.5,77C 245.584,75.0657 241.584,74.5657 237.5,75.5C 237.773,73.549 237.107,72.049 235.5,71C 235.833,70.6667 236.167,70.3333 236.5,70C 234.854,68.5986 233.187,68.432 231.5,69.5C 232.912,71.5792 234.412,73.5792 236,75.5C 236.167,76.1667 236.333,76.8333 236.5,77.5C 235.055,79.2779 234.055,81.2779 233.5,83.5C 234.617,86.0699 235.45,88.7366 236,91.5C 236.75,92.1258 237.584,92.6258 238.5,93C 237.221,94.6461 235.555,95.8128 233.5,96.5C 234.26,99.6063 234.593,102.94 234.5,106.5C 232.654,106.222 231.32,106.889 230.5,108.5C 232.416,110.418 234.416,112.252 236.5,114C 235.608,117.731 233.942,121.064 231.5,124C 232.34,125.171 233.173,126.338 234,127.5C 234.034,129.18 234.201,130.68 234.5,132C 231.598,135.38 231.264,138.88 233.5,142.5C 232.271,143.281 230.938,143.781 229.5,144C 228.562,147.69 229.562,150.856 232.5,153.5C 231.759,156.634 230.759,159.634 229.5,162.5C 227.926,162.937 226.759,163.937 226,165.5C 225.333,163.833 225.333,162.167 226,160.5C 227.522,158.978 229.022,157.478 230.5,156C 227.792,154.601 227.126,152.601 228.5,150C 227.511,146.553 226.844,143.053 226.5,139.5C 231.302,139.357 231.302,138.19 226.5,136C 230.756,133.277 230.422,132.11 225.5,132.5C 225.714,130.856 225.38,129.356 224.5,128C 225.308,127.692 225.975,127.192 226.5,126.5C 225.398,124.039 225.398,121.539 226.5,119C 226.561,117.289 225.894,115.956 224.5,115C 225.685,112.224 225.685,109.39 224.5,106.5C 224.854,102.261 225.854,98.2608 227.5,94.5C 226.826,92.4835 225.659,90.8168 224,89.5C 223.505,87.5273 223.338,85.5273 223.5,83.5C 224.586,83.38 225.253,82.7133 225.5,81.5C 223.56,79.3263 223.226,76.993 224.5,74.5C 221.316,72.8901 217.983,71.8901 214.5,71.5C 214.631,70.7611 214.464,70.0944 214,69.5C 210.632,67.5867 207.799,65.0867 205.5,62C 202.62,61.6498 199.953,60.8165 197.5,59.5C 197.833,58.1667 198.167,56.8333 198.5,55.5C 199.791,54.4583 199.791,53.2917 198.5,52C 199.025,51.3076 199.692,50.8076 200.5,50.5C 202.33,54.3405 205.33,56.0072 209.5,55.5C 209.191,60.5459 211.524,63.5459 216.5,64.5C 219.2,62.7656 221.2,60.4323 222.5,57.5C 226.235,54.3665 228.568,55.1998 229.5,60C 230.744,60.4561 231.577,59.9561 232,58.5C 233.075,60.8297 234.575,62.163 236.5,62.5C 237.5,61.8333 238.5,61.1667 239.5,60.5C 240.768,61.4279 242.101,61.5946 243.5,61C 242.272,59.5098 242.272,58.0098 243.5,56.5 Z"/></g>
<g><path style="opacity:1" fill="#e4dc5b" d="M 114.5,63.5 C 114.279,64.7348 113.612,65.7348 112.5,66.5C 115.304,68.1381 117.971,69.9715 120.5,72C 119.62,73.3561 119.286,74.8561 119.5,76.5C 121.359,76.4609 122.692,77.2942 123.5,79C 121.015,80.2227 120.848,81.7227 123,83.5C 123.419,82.3279 124.085,81.3279 125,80.5C 126.788,82.3326 126.954,84.3326 125.5,86.5C 123.611,87.604 121.945,88.9373 120.5,90.5C 121.365,90.5639 122.365,90.8973 123.5,91.5C 124.552,93.5417 125.219,95.7084 125.5,98C 122.097,105.538 122.097,112.871 125.5,120C 122.014,121.947 121.681,124.28 124.5,127C 125.125,134.803 124.458,142.803 122.5,151C 123.516,151.519 124.182,152.353 124.5,153.5C 123.452,155.41 123.452,157.244 124.5,159C 122.796,160.636 121.296,162.469 120,164.5C 119.333,165.5 119.333,166.5 120,167.5C 121.246,166.228 122.413,165.895 123.5,166.5C 121.959,168.204 120.625,170.037 119.5,172C 121.164,173.767 122.331,173.267 123,170.5C 126.476,175.726 125.976,180.56 121.5,185C 122.167,185.667 122.833,186.333 123.5,187C 121.449,187.815 120.116,188.648 119.5,189.5C 119.5,189.833 119.5,190.167 119.5,190.5C 116.833,190.5 114.167,190.5 111.5,190.5C 112.678,189.001 114.345,188.001 116.5,187.5C 115.5,186.667 114.5,185.833 113.5,185C 114.574,184.261 115.241,183.261 115.5,182C 114.167,180.333 114.167,178.667 115.5,177C 114.544,175.635 113.878,174.135 113.5,172.5C 114.602,164.334 115.602,156.334 116.5,148.5C 115.988,143.892 115.988,139.392 116.5,135C 114.139,131.938 114.139,128.938 116.5,126C 115.983,123.923 115.316,121.923 114.5,120C 115.516,119.481 116.182,118.647 116.5,117.5C 116.215,113.024 116.215,108.524 116.5,104C 115.198,101.787 114.198,99.4537 113.5,97C 114.692,91.2585 114.692,85.2585 113.5,79C 114.424,77.1886 115.257,77.3553 116,79.5C 116.781,78.0563 116.614,76.723 115.5,75.5C 114.575,76.6405 113.741,76.6405 113,75.5C 112.03,72.5564 111.196,69.5564 110.5,66.5C 109.378,67.6302 108.044,68.2969 106.5,68.5C 106.953,67.5416 107.619,66.7083 108.5,66C 110.42,64.8777 112.42,64.0444 114.5,63.5 Z"/></g>
<g><path style="opacity:1" fill="#e5dd66" d="M 190.5,67.5 C 189.5,68.8333 188.5,70.1667 187.5,71.5C 185.299,75.9558 183.966,80.7891 183.5,86C 183.905,86.9454 184.572,87.6121 185.5,88C 184.57,89.1939 183.903,90.5272 183.5,92C 183.756,95.0757 183.923,98.2424 184,101.5C 184.333,101.167 184.667,100.833 185,100.5C 185.706,102.971 185.373,105.305 184,107.5C 182.35,113.926 183.85,119.426 188.5,124C 185.942,125.38 185.942,126.88 188.5,128.5C 187.553,130.059 186.887,131.726 186.5,133.5C 186.988,138.461 188.321,143.128 190.5,147.5C 189.364,149.318 188.697,151.318 188.5,153.5C 188.971,157.229 189.304,160.562 189.5,163.5C 188.621,166.323 187.621,169.157 186.5,172C 187.029,173.559 187.696,175.059 188.5,176.5C 187.05,177.85 186.383,179.516 186.5,181.5C 185.5,181.5 184.5,181.5 183.5,181.5C 183.5,182.5 183.5,183.5 183.5,184.5C 184.833,184.5 186.167,184.5 187.5,184.5C 187.5,186.5 187.5,188.5 187.5,190.5C 182.833,190.5 178.167,190.5 173.5,190.5C 173.5,190.167 173.5,189.833 173.5,189.5C 173.5,187.5 173.5,185.5 173.5,183.5C 174.5,183.5 175.5,183.5 176.5,183.5C 176.281,184.675 176.614,185.675 177.5,186.5C 177.06,185.047 177.726,183.881 179.5,183C 177.337,182.755 175.67,181.755 174.5,180C 174.199,177.32 174.533,174.486 175.5,171.5C 174.833,170.167 174.167,168.833 173.5,167.5C 175.453,164.674 176.12,161.674 175.5,158.5C 171.71,156.896 172.044,155.896 176.5,155.5C 176.286,153.856 176.62,152.356 177.5,151C 176.747,149.513 175.914,149.346 175,150.5C 172.746,147.685 173.246,145.518 176.5,144C 176.81,137.945 176.143,131.778 174.5,125.5C 175.346,120.107 175.679,114.774 175.5,109.5C 174.477,107.997 173.477,106.497 172.5,105C 173.022,104.05 173.689,103.216 174.5,102.5C 173.061,100.657 173.228,98.9901 175,97.5C 175.346,100.576 176.012,103.576 177,106.5C 177.333,106.167 177.667,105.833 178,105.5C 177.416,103.3 177.582,101.133 178.5,99C 177.833,97.6667 176.833,96.6667 175.5,96C 175.356,93.2873 175.523,90.454 176,87.5C 174.992,87.0183 173.825,86.8516 172.5,87C 175.417,82.6141 177.584,77.7807 179,72.5C 180.693,70.9733 182.527,69.6399 184.5,68.5C 185.086,68.7093 185.586,69.0426 186,69.5C 187.33,68.4178 188.83,67.7512 190.5,67.5 Z"/></g>
<g><path style="opacity:1" fill="#d6cf55" d="M 253.5,66.5 C 254.5,66.8333 255.167,67.5 255.5,68.5C 257.241,70.3864 258.241,72.7197 258.5,75.5C 257.243,89.1035 257.243,102.603 258.5,116C 258.726,118.671 258.059,121.004 256.5,123C 258.454,127.152 259.788,131.485 260.5,136C 259.416,148.695 259.416,161.195 260.5,173.5C 259.76,178.908 259.76,183.908 260.5,188.5C 258.833,188.5 257.167,188.5 255.5,188.5C 256.23,184.283 255.564,180.116 253.5,176C 254.308,173.239 255.308,170.572 256.5,168C 255.427,166.687 254.76,165.187 254.5,163.5C 255.136,155.558 255.47,147.891 255.5,140.5C 255.314,138.42 254.314,136.92 252.5,136C 253.448,135.517 254.448,135.351 255.5,135.5C 255.761,131.658 255.094,127.991 253.5,124.5C 254.167,122.5 254.833,120.5 255.5,118.5C 254.054,116.382 253.387,114.049 253.5,111.5C 254.5,111.5 255.5,111.5 256.5,111.5C 256.695,104.386 256.028,97.553 254.5,91C 255.357,90.3109 256.023,89.4776 256.5,88.5C 255.996,81.0813 254.996,73.7479 253.5,66.5 Z"/></g>
<g><path style="opacity:1" fill="#e1d865" d="M 94.5,71.5 C 96.1765,73.4979 98.1765,73.8312 100.5,72.5C 103.109,73.2305 105.776,73.7305 108.5,74C 109.337,75.0113 109.67,76.1779 109.5,77.5C 108.026,75.8627 106.192,74.8627 104,74.5C 100.806,75.6028 97.6394,75.6028 94.5,74.5C 92.549,70.368 91.2157,70.5346 90.5,75C 88.8204,75.0343 87.3204,75.201 86,75.5C 85.0467,78.4318 84.5467,81.4318 84.5,84.5C 85.5,84.5 86.5,84.5 87.5,84.5C 87.9529,87.6521 86.9529,90.1521 84.5,92C 85.8333,93 85.8333,94 84.5,95C 85.5,95.3333 86.5,95.6667 87.5,96C 85.9588,97.5793 84.7922,99.4127 84,101.5C 83.8419,106.044 84.3419,110.544 85.5,115C 85.5137,118.476 84.5137,121.643 82.5,124.5C 83.363,129.618 84.6963,134.618 86.5,139.5C 85.9747,140.192 85.3081,140.692 84.5,141C 85.2822,143.74 85.7822,146.574 86,149.5C 87.8356,151.131 87.3356,151.798 84.5,151.5C 84.2601,154.579 84.5934,157.579 85.5,160.5C 84.878,163.37 84.2113,166.204 83.5,169C 86.7665,173.448 86.7665,178.114 83.5,183C 84.2865,185.099 84.6199,187.266 84.5,189.5C 86.099,189.232 87.4324,189.566 88.5,190.5C 88.1667,190.5 87.8333,190.5 87.5,190.5C 85.8333,190.5 84.1667,190.5 82.5,190.5C 81.9885,187.978 80.9885,185.645 79.5,183.5C 80.4972,183.53 81.1639,183.03 81.5,182C 80.1054,180.279 79.4387,178.279 79.5,176C 81.1929,173.25 81.8595,170.416 81.5,167.5C 80.009,165.193 79.009,162.693 78.5,160C 80.0097,158.649 81.0097,156.982 81.5,155C 78.4295,151.287 77.7629,147.12 79.5,142.5C 78.8333,141.167 78.1667,139.833 77.5,138.5C 78.938,135.483 79.938,132.316 80.5,129C 80.0556,127.238 79.5556,127.405 79,129.5C 78.9528,124.524 80.4528,120.024 83.5,116C 80.9767,114.089 80.9767,112.255 83.5,110.5C 82.5535,108.941 81.8868,107.274 81.5,105.5C 82.6901,103.641 82.6901,101.808 81.5,100C 81.9504,98.7147 82.6171,97.548 83.5,96.5C 82.8625,92.3004 82.1959,88.1337 81.5,84C 82.5784,83.3261 83.2451,82.3261 83.5,81C 82.3157,77.2034 83.649,74.7034 87.5,73.5C 87.33,72.1779 87.6634,71.0113 88.5,70C 90.9894,69.0589 92.9894,69.5589 94.5,71.5 Z"/></g>
<g><path style="opacity:1" fill="#e5de73" d="M 210.5,190.5 C 203.018,191.492 195.352,191.825 187.5,191.5C 187.5,191.167 187.5,190.833 187.5,190.5C 187.5,188.5 187.5,186.5 187.5,184.5C 186.167,184.5 184.833,184.5 183.5,184.5C 183.5,183.5 183.5,182.5 183.5,181.5C 184.5,181.5 185.5,181.5 186.5,181.5C 186.383,179.516 187.05,177.85 188.5,176.5C 187.696,175.059 187.029,173.559 186.5,172C 187.621,169.157 188.621,166.323 189.5,163.5C 189.304,160.562 188.971,157.229 188.5,153.5C 188.697,151.318 189.364,149.318 190.5,147.5C 188.321,143.128 186.988,138.461 186.5,133.5C 186.887,131.726 187.553,130.059 188.5,128.5C 185.942,126.88 185.942,125.38 188.5,124C 183.85,119.426 182.35,113.926 184,107.5C 185.373,105.305 185.706,102.971 185,100.5C 184.667,100.833 184.333,101.167 184,101.5C 183.923,98.2424 183.756,95.0757 183.5,92C 183.903,90.5272 184.57,89.1939 185.5,88C 184.572,87.6121 183.905,86.9454 183.5,86C 183.966,80.7891 185.299,75.9558 187.5,71.5C 191.877,70.5985 196.211,69.2652 200.5,67.5C 202.819,68.0639 205.153,68.5639 207.5,69C 208.716,70.7398 210.382,71.7398 212.5,72C 210.845,73.4443 210.178,75.2776 210.5,77.5C 211.5,77.5 212.5,77.5 213.5,77.5C 213.39,81.2807 213.39,85.114 213.5,89C 212.983,91.077 212.316,93.077 211.5,95C 212.357,95.6891 213.023,96.5224 213.5,97.5C 210.079,105.085 210.079,112.918 213.5,121C 213.284,123.507 212.284,124.34 210.5,123.5C 207.833,124.833 207.833,126.167 210.5,127.5C 213.98,133.721 212.98,138.887 207.5,143C 208.108,143.87 208.941,144.37 210,144.5C 211.162,143.813 212.328,143.647 213.5,144C 212.711,146.365 211.544,148.532 210,150.5C 209.73,153.224 209.23,155.891 208.5,158.5C 208.833,158.833 209.167,159.167 209.5,159.5C 210.429,158.311 210.762,156.978 210.5,155.5C 211.5,155.5 212.5,155.5 213.5,155.5C 212.642,159.127 212.476,162.794 213,166.5C 212.075,167.047 211.242,167.713 210.5,168.5C 212.356,171.56 212.356,174.394 210.5,177C 211.628,178.468 212.294,180.135 212.5,182C 210.623,184.8 209.957,187.633 210.5,190.5 Z"/></g>
<g><path style="opacity:1" fill="#e5de79" d="M 194.5,70.5 C 198.072,70.9376 201.572,71.6042 205,72.5C 205.761,75.0529 206.594,77.5529 207.5,80C 205.136,81.0118 203.802,82.3451 203.5,84C 205.618,85.1425 207.618,85.6425 209.5,85.5C 209.833,85.8333 210.167,86.1667 210.5,86.5C 209.675,87.3857 208.675,87.719 207.5,87.5C 207.618,92.9804 206.785,98.3137 205,103.5C 204.167,105 203,106.167 201.5,107C 204.533,110.389 205.199,114.222 203.5,118.5C 205.078,121.407 206.412,124.407 207.5,127.5C 206.72,128.949 206.054,130.449 205.5,132C 205.755,133.326 206.422,134.326 207.5,135C 204.333,137.5 201.5,140.333 199,143.5C 195.728,141.168 194.561,138.168 195.5,134.5C 192.717,131.658 193.05,129.158 196.5,127C 194.249,123.247 192.582,119.247 191.5,115C 191.509,113.596 192.009,112.43 193,111.5C 194.073,112.28 195.24,112.113 196.5,111C 193.141,108.966 192.808,106.632 195.5,104C 194.167,103.667 192.833,103.333 191.5,103C 195.29,100.17 195.29,97.503 191.5,95C 192.167,94 192.833,93 193.5,92C 191.684,90.2814 190.684,88.1147 190.5,85.5C 192.425,83.7325 193.758,81.5658 194.5,79C 193.426,78.2613 192.759,77.2613 192.5,76C 193.856,74.4329 194.523,72.5996 194.5,70.5 Z"/></g>
<g><path style="opacity:1" fill="#ded664" d="M 111.5,190.5 C 134.476,192.49 157.809,193.157 181.5,192.5C 196.5,192.5 211.5,192.5 226.5,192.5C 226.5,192.833 226.5,193.167 226.5,193.5C 216.5,193.5 206.5,193.5 196.5,193.5C 147.664,193.832 98.9971,193.499 50.5,192.5C 62.1714,192.667 73.8381,192.5 85.5,192C 86.4158,191.722 87.0825,191.222 87.5,190.5C 87.8333,190.5 88.1667,190.5 88.5,190.5C 95.5079,190.666 102.508,190.5 109.5,190C 107.5,189.667 105.5,189.333 103.5,189C 106.747,185.524 108.413,181.357 108.5,176.5C 107.477,174.105 108.477,173.105 111.5,173.5C 110.836,171.133 109.503,169.133 107.5,167.5C 109.055,165.057 109.722,162.39 109.5,159.5C 108.448,159.649 107.448,159.483 106.5,159C 108.422,154.727 109.422,150.227 109.5,145.5C 109.684,142.124 108.517,139.457 106,137.5C 105.208,132.501 106.375,128.001 109.5,124C 106.558,121.008 106.892,118.508 110.5,116.5C 111.474,114.257 111.808,111.924 111.5,109.5C 107.726,109.516 106.726,107.85 108.5,104.5C 106.627,101.816 105.627,98.8158 105.5,95.5C 107.103,95.6882 108.437,95.1882 109.5,94C 107.031,88.4931 107.031,82.9931 109.5,77.5C 109.67,76.1779 109.337,75.0113 108.5,74C 105.776,73.7305 103.109,73.2305 100.5,72.5C 98.1765,73.8312 96.1765,73.4979 94.5,71.5C 98.1817,71.6653 101.848,71.4986 105.5,71C 106.252,70.3292 106.586,69.4959 106.5,68.5C 108.044,68.2969 109.378,67.6302 110.5,66.5C 111.196,69.5564 112.03,72.5564 113,75.5C 113.741,76.6405 114.575,76.6405 115.5,75.5C 116.614,76.723 116.781,78.0563 116,79.5C 115.257,77.3553 114.424,77.1886 113.5,79C 114.692,85.2585 114.692,91.2585 113.5,97C 114.198,99.4537 115.198,101.787 116.5,104C 116.215,108.524 116.215,113.024 116.5,117.5C 116.182,118.647 115.516,119.481 114.5,120C 115.316,121.923 115.983,123.923 116.5,126C 114.139,128.938 114.139,131.938 116.5,135C 115.988,139.392 115.988,143.892 116.5,148.5C 115.602,156.334 114.602,164.334 113.5,172.5C 113.878,174.135 114.544,175.635 115.5,177C 114.167,178.667 114.167,180.333 115.5,182C 115.241,183.261 114.574,184.261 113.5,185C 114.5,185.833 115.5,186.667 116.5,187.5C 114.345,188.001 112.678,189.001 111.5,190.5 Z"/></g>
<g><path style="opacity:1" fill="#d4cd7b" d="M 56.5,37.5 C 54.4615,41.518 51.1281,43.518 46.5,43.5C 47.075,47.1547 46.075,50.1547 43.5,52.5C 41.8712,53.6253 40.3712,54.9586 39,56.5C 39.1449,59.9233 37.6449,61.9233 34.5,62.5C 34.2444,65.5979 33.5778,68.5979 32.5,71.5C 31.8629,74.456 31.3629,77.456 31,80.5C 30.6667,78.8333 30.3333,77.1667 30,75.5C 29.8333,88.1667 29.6667,100.833 29.5,113.5C 29.5623,127.394 30.229,141.228 31.5,155C 30.8995,164.864 30.2328,174.697 29.5,184.5C 30.1667,184.833 30.8333,185.167 31.5,185.5C 28.9818,187.156 28.9818,188.489 31.5,189.5C 34.1667,190.167 36.8333,190.833 39.5,191.5C 35.8333,191.5 32.1667,191.5 28.5,191.5C 28.1667,191.5 27.8333,191.5 27.5,191.5C 27.3333,152.832 27.5,114.165 28,75.5C 28.5465,70.6471 29.7132,65.9805 31.5,61.5C 33.8542,58.8468 35.8542,55.8468 37.5,52.5C 38.8333,51.5 40.1667,50.5 41.5,49.5C 42.4287,48.3112 42.762,46.9778 42.5,45.5C 43.5,45.5 44.5,45.5 45.5,45.5C 46.1667,43.5 46.8333,41.5 47.5,39.5C 50.6644,39.4422 53.6644,38.7755 56.5,37.5 Z"/></g>
<g><path style="opacity:1" fill="#d8ce41" d="M 198.5,55.5 C 198.167,56.8333 197.833,58.1667 197.5,59.5C 191.844,60.6558 185.844,61.3224 179.5,61.5C 179.631,64.3667 178.297,66.0334 175.5,66.5C 173.348,68.0671 171.181,69.7338 169,71.5C 168.5,71.3333 168,71.1667 167.5,71C 168.535,69.4931 168.368,67.9931 167,66.5C 166.585,68.2909 165.585,69.6243 164,70.5C 163.71,68.9559 163.044,67.6226 162,66.5C 160.468,68.5624 158.468,69.8957 156,70.5C 154.762,67.428 152.929,64.7613 150.5,62.5C 148.45,63.0766 147.45,64.4099 147.5,66.5C 143.595,65.2974 139.762,64.6307 136,64.5C 134.327,66.9166 132.494,66.9166 130.5,64.5C 131.744,62.8667 131.244,61.8667 129,61.5C 126.744,63.0855 124.244,63.7521 121.5,63.5C 119.167,64.8333 116.833,64.8333 114.5,63.5C 114.134,62.3054 113.301,61.6387 112,61.5C 110.606,63.3875 108.773,64.7209 106.5,65.5C 104.827,63.9137 102.827,63.2471 100.5,63.5C 100.5,64.5 100.5,65.5 100.5,66.5C 99.1266,66.6567 97.7932,66.49 96.5,66C 94.6896,63.9336 92.6896,62.1002 90.5,60.5C 88.6951,61.472 87.0284,62.6387 85.5,64C 84.2161,64.6838 83.0495,64.5171 82,63.5C 79.002,67.8267 75.6687,71.8267 72,75.5C 71.6667,77.1667 71.3333,78.8333 71,80.5C 70.6667,80.1667 70.3333,79.8333 70,79.5C 70.6319,82.0457 71.1319,84.7124 71.5,87.5C 70.448,87.3505 69.448,87.5172 68.5,88C 71.8271,89.7908 72.1604,91.9575 69.5,94.5C 70.1667,95.1667 70.8333,95.8333 71.5,96.5C 70.9268,98.1603 70.9268,99.9937 71.5,102C 71.6816,104.343 72.6816,106.176 74.5,107.5C 74.1672,110.885 72.6672,113.552 70,115.5C 69.6844,121.578 70.0177,127.578 71,133.5C 69.1871,131.528 68.0204,131.528 67.5,133.5C 69.4272,136.242 71.0939,139.075 72.5,142C 71.8333,144.333 71.1667,146.667 70.5,149C 71.3449,153.461 71.6782,157.961 71.5,162.5C 70.325,162.281 69.325,162.614 68.5,163.5C 72.0927,166.817 72.4261,170.484 69.5,174.5C 71.9442,177.397 71.9442,180.23 69.5,183C 71.5521,185.379 72.2188,187.879 71.5,190.5C 64.1591,190.666 56.8258,190.5 49.5,190C 47.9419,189.79 46.6085,189.29 45.5,188.5C 48.8458,187.997 52.1792,187.33 55.5,186.5C 49.2704,185.036 48.9371,182.703 54.5,179.5C 52.3175,178.308 50.9842,176.475 50.5,174C 51.1845,171.675 50.8511,169.342 49.5,167C 50.1667,166.333 50.8333,165.667 51.5,165C 49.3822,161.46 49.3822,157.793 51.5,154C 51.2451,152.674 50.5784,151.674 49.5,151C 50.8522,148.706 51.5189,146.206 51.5,143.5C 49.6917,133.531 50.6917,123.864 54.5,114.5C 53.9598,113.252 53.2931,112.085 52.5,111C 52.8333,110.667 53.1667,110.333 53.5,110C 49.9818,107.286 49.6485,104.119 52.5,100.5C 51.8465,91.6363 51.1798,82.803 50.5,74C 52.7582,73.124 54.7582,71.9573 56.5,70.5C 58.1996,68.7901 59.5329,66.7901 60.5,64.5C 62.4648,63.7078 64.4648,63.0412 66.5,62.5C 69.804,62.7731 72.6373,61.4398 75,58.5C 75.3333,59.1667 75.6667,59.8333 76,60.5C 77.3161,59.0257 78.3161,57.359 79,55.5C 79.3333,56.1667 79.6667,56.8333 80,57.5C 80.6891,56.6433 81.5224,55.9767 82.5,55.5C 83.6956,55.8457 83.6956,56.3457 82.5,57C 83.8333,57.6667 85.1667,57.6667 86.5,57C 89.4298,54.9948 92.2631,52.8281 95,50.5C 95.5,51.6667 96.3333,52.5 97.5,53C 100.79,53.2532 103.79,54.2532 106.5,56C 105.359,56.7412 105.359,57.5745 106.5,58.5C 110.157,61.5709 112.157,60.5709 112.5,55.5C 116.895,52.8991 121.562,50.8991 126.5,49.5C 127.086,49.7093 127.586,50.0426 128,50.5C 130.027,49.7883 131.027,48.7883 131,47.5C 132.225,47.8623 133.391,48.3623 134.5,49C 134.167,49.3333 133.833,49.6667 133.5,50C 134.416,50.3742 135.25,50.8742 136,51.5C 138.282,47.9594 140.949,47.6261 144,50.5C 144.249,49.376 144.749,48.376 145.5,47.5C 146.722,49.9783 148.722,50.9783 151.5,50.5C 151.343,49.1266 151.51,47.7932 152,46.5C 154.607,47.809 156.941,49.4756 159,51.5C 160.559,50.9706 162.059,50.304 163.5,49.5C 164.386,50.325 164.719,51.325 164.5,52.5C 166.682,50.9119 169.182,49.9119 172,49.5C 175.653,49.5315 178.82,50.6982 181.5,53C 184.817,53.4983 188.15,53.665 191.5,53.5C 191.5,54.5 191.5,55.5 191.5,56.5C 193.903,56.552 196.236,56.2186 198.5,55.5 Z"/></g>
<g><path style="opacity:1" fill="#dbd350" d="M 223.5,83.5 C 223.338,85.5273 223.505,87.5273 224,89.5C 225.659,90.8168 226.826,92.4835 227.5,94.5C 225.854,98.2608 224.854,102.261 224.5,106.5C 225.685,109.39 225.685,112.224 224.5,115C 225.894,115.956 226.561,117.289 226.5,119C 225.398,121.539 225.398,124.039 226.5,126.5C 225.975,127.192 225.308,127.692 224.5,128C 225.38,129.356 225.714,130.856 225.5,132.5C 230.422,132.11 230.756,133.277 226.5,136C 231.302,138.19 231.302,139.357 226.5,139.5C 226.844,143.053 227.511,146.553 228.5,150C 227.126,152.601 227.792,154.601 230.5,156C 229.022,157.478 227.522,158.978 226,160.5C 225.333,162.167 225.333,163.833 226,165.5C 226.759,163.937 227.926,162.937 229.5,162.5C 230.043,162.56 230.376,162.893 230.5,163.5C 229.926,165.059 229.26,166.559 228.5,168C 229.358,169.57 230.025,171.237 230.5,173C 229.521,175.433 228.855,177.933 228.5,180.5C 229.5,180.5 230.5,180.5 231.5,180.5C 232.21,183.86 230.876,185.693 227.5,186C 228.337,187.011 228.67,188.178 228.5,189.5C 225.5,189.5 222.5,189.5 219.5,189.5C 220.762,184.848 220.762,180.181 219.5,175.5C 220.735,175.279 221.735,174.612 222.5,173.5C 223.38,168.605 224.38,163.771 225.5,159C 222.855,156.076 222.855,153.076 225.5,150C 225.095,149.055 224.428,148.388 223.5,148C 223.833,147.667 224.167,147.333 224.5,147C 223.87,143.871 223.204,140.704 222.5,137.5C 221.28,137.113 220.613,136.28 220.5,135C 221.833,132.667 221.833,130.333 220.5,128C 220.998,125.752 221.998,123.752 223.5,122C 222.385,120.765 222.385,119.598 223.5,118.5C 223.062,117.494 222.396,117.494 221.5,118.5C 220.004,115.825 220.671,113.825 223.5,112.5C 220.828,110.575 219.828,107.908 220.5,104.5C 221.5,104.5 222.5,104.5 223.5,104.5C 223.785,102.712 223.452,101.045 222.5,99.5C 221.167,98.8333 220.167,97.8333 219.5,96.5C 220.244,93.557 220.744,90.557 221,87.5C 221.2,85.6803 222.034,84.347 223.5,83.5 Z"/></g>
<g><path style="opacity:1" fill="#dad05d" d="M 39.5,88.5 C 39.0684,94.0037 39.7351,99.3371 41.5,104.5C 40.9757,106.383 40.3091,108.216 39.5,110C 39.4292,112.936 39.7626,115.936 40.5,119C 39.7599,120.785 39.0933,122.618 38.5,124.5C 39.715,128.306 39.715,132.139 38.5,136C 39.5354,137.838 40.5354,139.671 41.5,141.5C 40.6376,143.087 39.9709,144.754 39.5,146.5C 40.8333,149.167 40.8333,151.833 39.5,154.5C 40.0676,156.369 40.7343,158.203 41.5,160C 41.8303,166.051 41.1636,172.051 39.5,178C 39.3066,181.243 39.9733,184.243 41.5,187C 40.944,187.383 40.6107,187.883 40.5,188.5C 38.8333,188.5 37.1667,188.5 35.5,188.5C 36.2625,187.732 37.2625,187.232 38.5,187C 36.9559,186.71 35.6226,186.044 34.5,185C 35.3466,169.587 35.3466,154.254 34.5,139C 36.0827,129.512 37.4161,120.012 38.5,110.5C 38.0233,109.522 37.3567,108.689 36.5,108C 36.7991,103.068 36.7991,98.0685 36.5,93C 36.8985,91.0188 37.8985,89.5188 39.5,88.5 Z"/></g>
<g><path style="opacity:1" fill="#dbd24f" d="M 114.5,63.5 C 112.42,64.0444 110.42,64.8777 108.5,66C 107.619,66.7083 106.953,67.5416 106.5,68.5C 104.08,68.2924 101.747,68.6258 99.5,69.5C 97.057,67.9447 94.3903,67.278 91.5,67.5C 91.8333,64.5 90.5,63.1667 87.5,63.5C 87.5,64.5 87.5,65.5 87.5,66.5C 85.8561,66.2865 84.3561,66.6198 83,67.5C 83.2399,71.2308 81.7399,73.8975 78.5,75.5C 75.6376,79.5117 75.9709,83.1784 79.5,86.5C 76.0189,89.5683 76.0189,92.9017 79.5,96.5C 77.7494,98.4899 76.7494,100.823 76.5,103.5C 77.783,106.498 77.4497,109.332 75.5,112C 76.751,114.953 76.751,117.953 75.5,121C 76.4826,123.93 77.1492,126.93 77.5,130C 77.3413,139.376 77.008,148.71 76.5,158C 77.2401,159.785 77.9067,161.618 78.5,163.5C 75.8583,170.348 76.1916,177.015 79.5,183.5C 80.9885,185.645 81.9885,187.978 82.5,190.5C 78.8333,190.5 75.1667,190.5 71.5,190.5C 72.2188,187.879 71.5521,185.379 69.5,183C 71.9442,180.23 71.9442,177.397 69.5,174.5C 72.4261,170.484 72.0927,166.817 68.5,163.5C 69.325,162.614 70.325,162.281 71.5,162.5C 71.6782,157.961 71.3449,153.461 70.5,149C 71.1667,146.667 71.8333,144.333 72.5,142C 71.0939,139.075 69.4272,136.242 67.5,133.5C 68.0204,131.528 69.1871,131.528 71,133.5C 70.0177,127.578 69.6844,121.578 70,115.5C 72.6672,113.552 74.1672,110.885 74.5,107.5C 72.6816,106.176 71.6816,104.343 71.5,102C 70.9268,99.9937 70.9268,98.1603 71.5,96.5C 70.8333,95.8333 70.1667,95.1667 69.5,94.5C 72.1604,91.9575 71.8271,89.7908 68.5,88C 69.448,87.5172 70.448,87.3505 71.5,87.5C 71.1319,84.7124 70.6319,82.0457 70,79.5C 70.3333,79.8333 70.6667,80.1667 71,80.5C 71.3333,78.8333 71.6667,77.1667 72,75.5C 75.6687,71.8267 79.002,67.8267 82,63.5C 83.0495,64.5171 84.2161,64.6838 85.5,64C 87.0284,62.6387 88.6951,61.472 90.5,60.5C 92.6896,62.1002 94.6896,63.9336 96.5,66C 97.7932,66.49 99.1266,66.6567 100.5,66.5C 100.5,65.5 100.5,64.5 100.5,63.5C 102.827,63.2471 104.827,63.9137 106.5,65.5C 108.773,64.7209 110.606,63.3875 112,61.5C 113.301,61.6387 114.134,62.3054 114.5,63.5 Z"/></g>
<g><path style="opacity:1" fill="#e8e15b" d="M 252.5,188.5 C 253.5,188.5 254.5,188.5 255.5,188.5C 257.167,188.5 258.833,188.5 260.5,188.5C 253.967,190.429 247.301,191.762 240.5,192.5C 235.833,192.5 231.167,192.5 226.5,192.5C 211.5,192.5 196.5,192.5 181.5,192.5C 183.265,191.539 185.265,191.205 187.5,191.5C 195.352,191.825 203.018,191.492 210.5,190.5C 213.57,190.632 216.57,190.299 219.5,189.5C 222.5,189.5 225.5,189.5 228.5,189.5C 236.555,189.77 244.555,189.437 252.5,188.5 Z"/></g>
<g><path style="opacity:1" fill="#e5de5f" d="M 31.5,188.5 C 32.8333,188.5 34.1667,188.5 35.5,188.5C 37.1667,188.5 38.8333,188.5 40.5,188.5C 42.1667,188.5 43.8333,188.5 45.5,188.5C 46.6085,189.29 47.9419,189.79 49.5,190C 56.8258,190.5 64.1591,190.666 71.5,190.5C 75.1667,190.5 78.8333,190.5 82.5,190.5C 84.1667,190.5 85.8333,190.5 87.5,190.5C 87.0825,191.222 86.4158,191.722 85.5,192C 73.8381,192.5 62.1714,192.667 50.5,192.5C 46.6286,192.815 42.9619,192.482 39.5,191.5C 36.8333,190.833 34.1667,190.167 31.5,189.5C 31.5,189.167 31.5,188.833 31.5,188.5 Z"/></g>
<g><path style="opacity:1" fill="#f8f360" d="M 111.5,190.5 C 114.167,190.5 116.833,190.5 119.5,190.5C 137.5,190.5 155.5,190.5 173.5,190.5C 178.167,190.5 182.833,190.5 187.5,190.5C 187.5,190.833 187.5,191.167 187.5,191.5C 185.265,191.205 183.265,191.539 181.5,192.5C 157.809,193.157 134.476,192.49 111.5,190.5 Z"/></g>
<g><path style="opacity:1" fill="#706e3a" d="M 265.5,191.5 C 264.833,192.167 264.167,192.833 263.5,193.5C 261.833,193.5 260.167,193.5 258.5,193.5C 257.167,193.5 255.833,193.5 254.5,193.5C 246.833,193.5 239.167,193.5 231.5,193.5C 229.833,193.5 228.167,193.5 226.5,193.5C 226.5,193.167 226.5,192.833 226.5,192.5C 231.167,192.5 235.833,192.5 240.5,192.5C 248.858,192.621 257.191,192.288 265.5,191.5 Z"/></g>
<g><path style="opacity:1" fill="#636024" d="M 28.5,192.5 C 28.5,192.167 28.5,191.833 28.5,191.5C 32.1667,191.5 35.8333,191.5 39.5,191.5C 42.9619,192.482 46.6286,192.815 50.5,192.5C 98.9971,193.499 147.664,193.832 196.5,193.5C 191.025,194.489 185.358,194.822 179.5,194.5C 157.833,194.5 136.167,194.5 114.5,194.5C 104.5,194.5 94.5,194.5 84.5,194.5C 72.8333,194.5 61.1667,194.5 49.5,194.5C 44.3595,193.512 39.0262,193.179 33.5,193.5C 32.0813,192.549 30.4147,192.216 28.5,192.5 Z"/></g>
<g><path style="opacity:1" fill="#322e19" d="M 84.5,195.5 C 84.5,195.167 84.5,194.833 84.5,194.5C 94.5,194.5 104.5,194.5 114.5,194.5C 114.167,195.167 113.833,195.833 113.5,196.5C 112.833,196.5 112.167,196.5 111.5,196.5C 111.167,196.5 110.833,196.5 110.5,196.5C 102.016,195.507 93.3494,195.174 84.5,195.5 Z"/></g>
<g><path style="opacity:1" fill="#37351c" d="M 196.5,193.5 C 206.5,193.5 216.5,193.5 226.5,193.5C 228.167,193.5 229.833,193.5 231.5,193.5C 231.5,193.833 231.5,194.167 231.5,194.5C 224.978,194.177 218.645,194.51 212.5,195.5C 202.833,195.5 193.167,195.5 183.5,195.5C 182.833,195.5 182.167,195.5 181.5,195.5C 180.508,195.672 179.842,195.338 179.5,194.5C 185.358,194.822 191.025,194.489 196.5,193.5 Z"/></g>
<g><path style="opacity:1" fill="#0c0c04" d="M 212.5,195.5 C 218.645,194.51 224.978,194.177 231.5,194.5C 238.863,194.169 246.197,194.503 253.5,195.5C 239.801,196.797 226.134,196.797 212.5,195.5 Z"/></g>
<g><path style="opacity:1" fill="#615e54" d="M 28.5,192.5 C 30.4147,192.216 32.0813,192.549 33.5,193.5C 34.209,194.404 35.209,194.737 36.5,194.5C 36.8483,198.938 34.8483,201.271 30.5,201.5C 30.1667,201.5 29.8333,201.5 29.5,201.5C 29.7359,198.391 29.4025,195.391 28.5,192.5 Z"/></g>
<g><path style="opacity:1" fill="#110d05" d="M 49.5,194.5 C 61.1667,194.5 72.8333,194.5 84.5,194.5C 84.5,194.833 84.5,195.167 84.5,195.5C 83.8333,196.167 83.1667,196.833 82.5,197.5C 70.7609,197.897 59.0943,197.231 47.5,195.5C 47.9569,194.702 48.6236,194.369 49.5,194.5 Z"/></g>
<g><path style="opacity:1" fill="#3c3b32" d="M 254.5,193.5 C 255.833,193.5 257.167,193.5 258.5,193.5C 254.197,197.752 255.197,200.252 261.5,201C 259.498,202.019 257.498,202.852 255.5,203.5C 254.833,203.5 254.167,203.5 253.5,203.5C 251.5,203.5 249.5,203.5 247.5,203.5C 249.607,202.532 251.941,202.198 254.5,202.5C 254.751,199.29 254.751,196.29 254.5,193.5 Z"/></g>
<g><path style="opacity:1" fill="#87867d" d="M 27.5,191.5 C 27.8333,191.5 28.1667,191.5 28.5,191.5C 28.5,191.833 28.5,192.167 28.5,192.5C 29.4025,195.391 29.7359,198.391 29.5,201.5C 28.8826,201.389 28.3826,201.056 28,200.5C 27.502,197.518 27.3354,194.518 27.5,191.5 Z"/></g>
<g><path style="opacity:1" fill="#201d10" d="M 33.5,193.5 C 39.0262,193.179 44.3595,193.512 49.5,194.5C 48.6236,194.369 47.9569,194.702 47.5,195.5C 59.0943,197.231 70.7609,197.897 82.5,197.5C 83.0147,199.894 83.6814,202.228 84.5,204.5C 74.6522,204.827 64.9856,204.494 55.5,203.5C 63.5277,203.831 71.5277,203.498 79.5,202.5C 77.8647,201.319 76.198,201.319 74.5,202.5C 72.8849,201.846 71.2182,201.346 69.5,201C 69.8333,200.667 70.1667,200.333 70.5,200C 66.8046,199.682 63.1379,199.182 59.5,198.5C 55.6386,200.004 51.6386,200.671 47.5,200.5C 47.5,201.5 47.5,202.5 47.5,203.5C 45.8333,203.5 44.1667,203.5 42.5,203.5C 46.5924,201.893 47.4258,199.226 45,195.5C 42.2809,194.556 39.4475,194.223 36.5,194.5C 35.209,194.737 34.209,194.404 33.5,193.5 Z"/></g>
<g><path style="opacity:1" fill="#292a24" d="M 181.5,195.5 C 182.167,195.5 182.833,195.5 183.5,195.5C 183.5,195.833 183.5,196.167 183.5,196.5C 182.833,196.5 182.5,196.833 182.5,197.5C 181.532,199.607 181.198,201.941 181.5,204.5C 179.833,204.5 178.167,204.5 176.5,204.5C 176.389,203.883 176.056,203.383 175.5,203C 178.447,202.888 179.78,201.388 179.5,198.5C 178.127,198.657 176.793,198.49 175.5,198C 177.974,197.963 179.974,197.13 181.5,195.5 Z"/></g>
<g><path style="opacity:1" fill="#1e1d12" d="M 231.5,194.5 C 231.5,194.167 231.5,193.833 231.5,193.5C 239.167,193.5 246.833,193.5 254.5,193.5C 254.751,196.29 254.751,199.29 254.5,202.5C 251.941,202.198 249.607,202.532 247.5,203.5C 234.167,203.833 220.833,204.167 207.5,204.5C 212.975,203.68 214.642,200.68 212.5,195.5C 226.134,196.797 239.801,196.797 253.5,195.5C 246.197,194.503 238.863,194.169 231.5,194.5 Z"/></g>
<g><path style="opacity:1" fill="#5d5d58" d="M 258.5,193.5 C 260.167,193.5 261.833,193.5 263.5,193.5C 263.67,194.822 263.337,195.989 262.5,197C 264.596,197.737 266.263,198.903 267.5,200.5C 263.811,202.674 259.811,203.674 255.5,203.5C 257.498,202.852 259.498,202.019 261.5,201C 255.197,200.252 254.197,197.752 258.5,193.5 Z"/></g>
<g><path style="opacity:1" fill="#777875" d="M 265.5,191.5 C 266.5,191.5 267.5,191.5 268.5,191.5C 268.81,194.713 268.477,197.713 267.5,200.5C 266.263,198.903 264.596,197.737 262.5,197C 263.337,195.989 263.67,194.822 263.5,193.5C 264.167,192.833 264.833,192.167 265.5,191.5 Z"/></g>
<g><path style="opacity:1" fill="#6e6e69" d="M 110.5,196.5 C 110.833,196.5 111.167,196.5 111.5,196.5C 109.316,197.266 106.982,197.933 104.5,198.5C 103.614,199.325 103.281,200.325 103.5,201.5C 98.1254,201.828 92.7921,201.495 87.5,200.5C 86.8728,199.583 86.5394,198.583 86.5,197.5C 94.3159,196.508 102.316,196.174 110.5,196.5 Z"/></g>
<g><path style="opacity:1" fill="#70706e" d="M 183.5,196.5 C 192.192,196.169 200.859,196.502 209.5,197.5C 208.854,199.977 207.354,201.644 205,202.5C 197.544,201.55 190.044,201.216 182.5,201.5C 182.5,200.167 182.5,198.833 182.5,197.5C 182.5,196.833 182.833,196.5 183.5,196.5 Z"/></g>
<g><path style="opacity:1" fill="#403e34" d="M 36.5,194.5 C 39.4475,194.223 42.2809,194.556 45,195.5C 47.4258,199.226 46.5924,201.893 42.5,203.5C 41.5,203.5 40.5,203.5 39.5,203.5C 36.1625,203.935 33.1625,203.268 30.5,201.5C 34.8483,201.271 36.8483,198.938 36.5,194.5 Z"/></g>
<g><path style="opacity:1" fill="#5c5d55" d="M 111.5,196.5 C 112.167,196.5 112.833,196.5 113.5,196.5C 113.975,199.082 113.308,201.082 111.5,202.5C 102.833,202.5 94.1667,202.5 85.5,202.5C 85.2155,200.585 85.5489,198.919 86.5,197.5C 86.5394,198.583 86.8728,199.583 87.5,200.5C 92.7921,201.495 98.1254,201.828 103.5,201.5C 103.281,200.325 103.614,199.325 104.5,198.5C 106.982,197.933 109.316,197.266 111.5,196.5 Z"/></g>
<g><path style="opacity:1" fill="#19150e" d="M 55.5,203.5 C 52.8333,203.5 50.1667,203.5 47.5,203.5C 47.5,202.5 47.5,201.5 47.5,200.5C 51.6386,200.671 55.6386,200.004 59.5,198.5C 63.1379,199.182 66.8046,199.682 70.5,200C 70.1667,200.333 69.8333,200.667 69.5,201C 71.2182,201.346 72.8849,201.846 74.5,202.5C 76.198,201.319 77.8647,201.319 79.5,202.5C 71.5277,203.498 63.5277,203.831 55.5,203.5 Z"/></g>
<g><path style="opacity:1" fill="#474845" d="M 84.5,195.5 C 93.3494,195.174 102.016,195.507 110.5,196.5C 102.316,196.174 94.3159,196.508 86.5,197.5C 85.5489,198.919 85.2155,200.585 85.5,202.5C 94.1667,202.5 102.833,202.5 111.5,202.5C 111.5,203.167 111.5,203.833 111.5,204.5C 102.5,204.5 93.5,204.5 84.5,204.5C 83.6814,202.228 83.0147,199.894 82.5,197.5C 83.1667,196.833 83.8333,196.167 84.5,195.5 Z"/></g>
<g><path style="opacity:1" fill="#525351" d="M 183.5,196.5 C 183.5,196.167 183.5,195.833 183.5,195.5C 193.167,195.5 202.833,195.5 212.5,195.5C 214.642,200.68 212.975,203.68 207.5,204.5C 198.833,204.5 190.167,204.5 181.5,204.5C 181.198,201.941 181.532,199.607 182.5,197.5C 182.5,198.833 182.5,200.167 182.5,201.5C 190.044,201.216 197.544,201.55 205,202.5C 207.354,201.644 208.854,199.977 209.5,197.5C 200.859,196.502 192.192,196.169 183.5,196.5 Z"/></g>
<g><path style="opacity:1" fill="#a19f98" d="M 29.5,201.5 C 29.8333,201.5 30.1667,201.5 30.5,201.5C 33.1625,203.268 36.1625,203.935 39.5,203.5C 39.5,203.833 39.5,204.167 39.5,204.5C 36.8127,204.664 34.146,204.497 31.5,204C 30.6195,203.292 29.9528,202.458 29.5,201.5 Z"/></g>
<g><path style="opacity:1" fill="#1b180e" d="M 114.5,194.5 C 136.167,194.5 157.833,194.5 179.5,194.5C 179.842,195.338 180.508,195.672 181.5,195.5C 179.974,197.13 177.974,197.963 175.5,198C 176.793,198.49 178.127,198.657 179.5,198.5C 179.78,201.388 178.447,202.888 175.5,203C 176.056,203.383 176.389,203.883 176.5,204.5C 154.833,204.5 133.167,204.5 111.5,204.5C 111.5,203.833 111.5,203.167 111.5,202.5C 113.308,201.082 113.975,199.082 113.5,196.5C 113.833,195.833 114.167,195.167 114.5,194.5 Z"/></g>
<g><path style="opacity:1" fill="#5d5634" d="M 39.5,204.5 C 39.5,204.167 39.5,203.833 39.5,203.5C 40.5,203.5 41.5,203.5 42.5,203.5C 44.1667,203.5 45.8333,203.5 47.5,203.5C 50.1667,203.5 52.8333,203.5 55.5,203.5C 64.9856,204.494 74.6522,204.827 84.5,204.5C 93.5,204.5 102.5,204.5 111.5,204.5C 133.167,204.5 154.833,204.5 176.5,204.5C 178.167,204.5 179.833,204.5 181.5,204.5C 142.337,205.499 103.004,205.832 63.5,205.5C 55.5,205.167 47.5,204.833 39.5,204.5 Z"/></g>
<g><path style="opacity:1" fill="#989477" d="M 247.5,203.5 C 249.5,203.5 251.5,203.5 253.5,203.5C 253.5,203.833 253.5,204.167 253.5,204.5C 251.5,204.5 249.5,204.5 247.5,204.5C 229.994,204.787 212.661,205.453 195.5,206.5C 151.33,206.832 107.33,206.499 63.5,205.5C 103.004,205.832 142.337,205.499 181.5,204.5C 190.167,204.5 198.833,204.5 207.5,204.5C 220.833,204.167 234.167,203.833 247.5,203.5 Z"/></g>
<g><path style="opacity:1" fill="#dededa" d="M 267.5,200.5 C 266.64,202.614 264.973,203.78 262.5,204C 263.696,204.654 263.696,205.154 262.5,205.5C 259.579,204.593 256.579,204.26 253.5,204.5C 253.5,204.167 253.5,203.833 253.5,203.5C 254.167,203.5 254.833,203.5 255.5,203.5C 259.811,203.674 263.811,202.674 267.5,200.5 Z"/></g>
<g><path style="opacity:1" fill="#e6e3d8" d="M 247.5,204.5 C 230.364,206.2 213.031,206.867 195.5,206.5C 212.661,205.453 229.994,204.787 247.5,204.5 Z"/></g>
</svg>
